/* XPM */
static char *result[] = {
/* columns rows colors chars-per-pixel */
"87 87 57 1 ",
"  c #101818",
". c #131A1B",
"X c #101C18",
"o c #182020",
"O c #1B2A2E",
"+ c #292C29",
"@ c #213031",
"# c #293031",
"$ c #293431",
"% c #213439",
"& c #293439",
"* c #293839",
"= c #313031",
"- c #34403E",
"; c #34413E",
": c #2B3D42",
"> c #2D484F",
", c #314142",
"< c #344044",
"1 c #314547",
"2 c #364744",
"3 c #394444",
"4 c #394744",
"5 c #31474C",
"6 c #31484C",
"7 c #394A4A",
"8 c #3F4C4C",
"9 c #3F4F4C",
"0 c #3F4C4F",
"q c #3F4F52",
"w c #3F5757",
"e c #31525A",
"r c #39515A",
"t c #39535A",
"y c #39555A",
"u c #395B65",
"i c #415352",
"p c #445757",
"a c #445A57",
"s c #495857",
"d c #495A57",
"f c #4A595A",
"g c #4A5D5A",
"h c #4A5D63",
"j c #4A696B",
"k c #52696B",
"l c #526D6B",
"z c #5A6D6B",
"x c #416D7B",
"c c #426D7B",
"v c #456D79",
"b c #3E349A",
"n c #453B9D",
"m c #4A3C9C",
"M c #445C86",
"N c #445E86",
"B c #4A419C",
/* pixels */
"XXXXXXXXXXXXXXXXXXXXXXXXXXXXXXXXXXXXXXXXXXXXXXXXXXXXXXXXXXXXXXXXXXXXXXXXXXXXXXXXXXXXXXX",
"                                                                                    ...",
"oooooooooooooooooooooooooooooooooooooooooooooooooooooooooooooooooooooooooooooooooooo...",
"###################################################################################+...",
"###################################################################################+...",
"===================================================================================+...",
"===================================================================================+...",
"===================================================================================+...",
"++++++++++++++++++++++++++++++++++++++++++++++++++++++++++++++++++++++++++++++##===+...",
"..............................................................................##===+...",
"..............................................................................##===+...",
"..............................................................................##===+...",
"xxxxxxxxxxxxxxcxxxxxxxxxxxxxxxxxxxxxxxxxxxxxxxxxxxxxxxxxxxxxxxxxxxxxxxxxxu:X o##===+...",
"xxxxxxxxxxxxxxcxxxxxxxxxxxxxxxxxxxxxxxxxxxxxxxxxxxxxxxxxxxxxxxxxxxxxxxxxu:uX o##===+...",
"xxxxxxxxxxxxxxcxxxxxxxxxxxxxxxxxxxxxxxxxxxxxxxxxxxxxxxxxxxxxxxxxxxxxxxxu:ucX o##===+...",
"xxxxxxxxxxxxxxcxxxxxxxxxxxxxxxxxxxxxxxxxxxxxxxxxxxxxxxxxxxxxxxxxxxxxxxu:ucxX o##===+...",
"xxxxxxxxxxxxxxcxxxxxxxxxxxxxxxxxxxxxxxxxxxxxxxxxxxxxxxxxxxxxxxxxxxxxxu:uxcxX o##===+...",
"xxxxxxxxxxxxxxcxxxxxxxxxxxxxxxxxxxxxxxxxxxxxxxxxxxxxxxxxxxxxxxxxxxxxu:ucxcxX o##===+...",
"xxxxxxxxxxxxxxcxxxxxxxxxxxxxxxxxxxxxxxxxxxxxxxxxxxxxxxxxxxxxxxxxxxxu:uxxccxX o##===+...",
"xxxxxxxxxxxxxxcxxxxxxxxxxxxxxxxxxxxxxxxxxxxxxxxxxxxxxxxxxxxxxxxxxxu:uxxxccxX o##===+...",
"xxxxxxxxxxxxxxcxxxxxxxxxxxxxxxxxxxxxxxxxxxxxxxxxxxxxxxxxxxxxxxxxxu:ucxxcxxxX o##===+...",
"xxxxxxxxxxxxxxcxxxxxxxxxxxxxxxxxxxxxxxxxxxxxxxxxxxxxxxxxxxxxxxxxu:uxcxxcxxxX o##===+...",
"xxxxxxxxxxxxxxcxxxxxxxxxxxxxxxxxxxxxxxxxxxxxxxxxxxxxxxxxxxxxxxxu:ucxcxxxxxxX o##===+...",
"xxxxxxxxxxxxxxcxxxxxxxxxxxxxxxxxxxxxxxxxxxxxxxxxxxxxxxxxxxxxxxu:uxxccxxxxxxX o##===+...",
"xxxxxxxxxxxxxxcxxxxxxxxxxxxxxxxxxxxxxxxxxxxxxxxxxxxxxxxxxxxxxu:uxxxccxxxxcxX o##===+...",
"xxxxxxxxxxxxxxcxxxxxxxxxxxxxxxxxxxxxxxxxxxxxxxxxxxxxxxxxxxxxu:ucxxxccxxxxcxX o##===+...",
"xxxxxxxxxxxxxxcxxxxxxxxxxxxxxxxxxxxxxxxxxxxxxxxxxxxxxxxxxxxu:uxcxxcxxxxxccxX o##===+...",
"xxxxxxxxxxxxxxcxxxxxxxxxxxxxxxxxxxxxxxxxxxxxxxxxxxxxxxxxxxu:ucxcxxxxxxxxccxX o##===+...",
"xxxxxxxxxxxxxxcxxxxxxxxxxxxxxxxxxxxxxxxxxxxxxxxxxxxxxxxxxu:uxxccxxxxxxxxccxX o##===+...",
"xxxxxxxxxxxxxxcxxxxxxxxxxxxxxxxxxxxxxxxxxxxxxxxxxxxxxxxxu:uxxxccxxxxxxxxccxX o##===+...",
"xxxxxxxxxxxxxxcxxxxxxxxxxxxxxxxxxxxxxxxxxxxxxxxxxxxxxxxu:ucxxxccxxxxxxxxccxX o##===+...",
"xxxxxxxxxxxxxxcxxxxxxxxxxxxxxxxxxxxxxxxxxxxxxxxxxxxxxxu:ucxxxxxxxxxxxxxxccxX o##===+...",
"xxxxxxxxxxxxxxcxxxxxxxxxxxxxxxxxxxxxxxxxxxxxxxxxxxxxxu:uccxxxxxxxxxxxxxxccxX o##===+...",
"xxxxxxxxxxxxxxcxxxxxxxxxxxxxxxxxxxxxxxxxxxxxxxxxxxxxu:uxccxxxxxxxxxxxxxxccxX o##===+...",
"xxxxxxxxxxxxxxcxxxxxxxxxxxxxxxxxxxxxxxxxxxxxxxxxxxxu:ucxccxxxxxxxxxxxxxxccxX o##===+...",
"xxxxxxxxxxxxxxcxxxxxxxxxxxxxxxxxxxxxxxxxxxxxxxxxxxu:ucxxccxxxxxxxxxxxxxxccxX o##===+...",
"xxxxxxxxxxxxxxcxxxxxxxxxxxxxxxxxxxxxxxxxxxxxxxxxxu:uxcxxccxxxxxxxxxxxxxxccxX o##===+...",
"xxxxxxxxxxxxxxcxxxxxxxxxxxxxxxxxxxxxxxxxxxxxxxxxu:ucxcxxxxxxxxxxxxxxxxxxccxX o##===+...",
"xxxxxxxxxxxxxxcxxxxxxxxxxxxxxxxxxxxxxxxxxxxxxxxu:uxxccxxxxxxxxxxxxxxxxxxccxX o##===+...",
"xxxxxxxxxxxxxxcxxxxxxxxxxxxxxxxxxxxxxxxxxxxxxxu:uxxxccxxxxxxxxxxxxxxxxxxccxX o##===+...",
"xxxxxxxxxxxxxxcxxxxxxxxxxxxxxxxxxxxxxxxxxxxxxu:ucxxxccxxxxxxxxxxxxxxxxxxccxX o##===+...",
"NNNNNNNNNNNNNNNMMNNNNNNNNNNNNNNNNNNNNNNNNNNNNnuxxxxxxxxxxxxxxxxxxxxxxxxxccxX o##===+...",
"BBBBBBBBBBBBBBBBBBBBBBBBBBBBBBBBBBBBBBBBBBBBbNxxxxxxxxxxxxxxxxxxxxxxxxxxccxX o##===+...",
"BBBBBBBBBBBBBBBBBBBBBBBBBBBBBBBBBBBBBBBBBBBbBNxxxxxxxxxxxxxxxxxxxxxxxxxxccxX o##===+...",
"BBBBBBBBBBBBBmmBBBBBBBBBBBBBBBBBBBBBBBBBBBbBBNxxxxxxxxxxxxxxxxxxxxxxxxxxccxX o##===+...",
"xxxxxxxxxxxxxxcxxxxxxxxxxxxxxxxxxxxxxxxxu:BBBNccxxxxxxxxxxxxxxxxxxxxxxxxccxX o##===+...",
"xxxxxxxxxxxxxxcxxxxxxxxxxxxxxxxxxxxxxxxu:uBBBNccxxxxxxxxxxxxxxxxxxxxxxxxccxX o##===+...",
"xxxxxxxxxxxxxxcxxxxxxxxxxxxxxxxxxxxxxxu:uxBBBNccxxxxxxxxxxxxxxxxxxxxxxxxccxX o##===+...",
"xxxxxxxxxxxxxxcxxxxxxxxxxxxxxxxxxxxxxu:ucxBBBNccxxxxxxxxxxxxxxxxxxxxxxxxccxX o##===+...",
"xxxxxxxxxxxxxxcxxxxxxxxxxxxxxxxxxxxxu:uxccBBBNccxxxxxxxxxxxxxxxxxxxxxxxxccxX o##===+...",
"xxxxxxxxxxxxxxcxxxxxxxxxxxxxxxxxxxxu:uxxccBBBNccxxxxxxxxxxxxxxxxxxxxxxxxccxX o##===+...",
"xxxxxxxxxxxxxxcxxxxxxxxxxxxxxxxxxxu:ucxxccBBBNccxxxxxxxxxxxxxxxxxxxxxxxxccxX o##===+...",
"xxxxxxxxxxxxxxcxxxxxxxxxxxxxxxxxeu:uccxxccBBBNccxxxxxxxxxxxxxxxxxxxxxxxxccxX o##===+...",
"xxxxxxxxxxxxxxcxxxxxxxxxxxxxxxxeu:uxxxxcccBBBNccxxxxxxxxxxxxxxxxxxxxxxxxccxX o##===+...",
"xxxxxxxxxxxxxxcxxxxxxxxxxxxxxxeu:ucxxxxcccBBBNccxxxxxxxxxxxxxxxxxxxxxxxxccxX o##===+...",
"xxxxxxxxxxxxxxcxxxxxxxxxxxxxxeu:uexxxxxcccBBBNccxxxxxxxxxxxxxxxxxxxxxxxxccxX o##===+...",
"xxxxxxxxxxxxxxcxxxxxxxxxxxxueu:uecxxxxxcccBBBNccxxxxxxxxxxxxxxxxxxxxxxxxccxX o##===+...",
"xxxxxxxxxxxxxxcxxxxxxxxcxxueu:uexcxxxxxcccBBBNccxxxxxxxxxxxxxxxxxxxxxxxxccxX o##===+...",
"xxxxxxxxxxxxxxcxxxxxxcxxeueu:uexccxxxxxcccBBBNccxxxxxxxxxxxxxxxxxxxxxxxxccxX o##===+...",
"xxxxxxxxxxxxxxcxxxxcxxueu>u:ueuxccxxxxxcccBBBNccxxxxxxxxxxxxxxxxxxxxxxxxccxX o##===+...",
"xxxxxxxxxxxxxxxxcxxueu>u>u:ueuexccxxxxxcccBBBNccxxxxxxxxxxxxxxxxxxxxxxxxccxX o##===+...",
"xxxxxxxxxxxxxcxxueueu>u:u:u>uexxxxxxxxxcccBBBNccxxxxxxxxxxxxxxxxxxxxxxxxccxX o##===+...",
"xxxxxxxxxueueueueu>u:u:u:u>uexxxxxxxxxxcccBBBNccxxxxxxxxxxxxxxxxxxxxxxxxccxX o##===+...",
"xxxxxxueueueu$$$$$$$**u:u:ueuxxxxxxxxxxcccBBBNccxxxxxxxxxxxxxxxxxxxxxxxxccxX o##===+...",
"$$$$$$$$$$$$$#3si7778-$u:u>uxxxxxxxxxxxcccBBBNccxxxxxxxxxxxxxxxxxxxxxxxxccxX o##===+...",
"pwwwwwwwwwwa$33sggggff$-u>uxxxxxxxxxxxxcccBBmMccxxxxxxxxxxxxxxxxxxxxxxxxccxX o##===+...",
"kjjjjjjjjjjl$33sggggff$-:uexxxxxxxxxxxxcccBBmMccxxxxxxxxxxxxxxxxxxxxxxxxccxX o##===+...",
"ghhhhhhhhhhg$33z7,ggff$-ueuxxxxxxxxxxxxcccBBBNccxxxxxxxxxxxxxxxxxxxxxxxxccxX o##===+...",
"9qqqqqqqqqq9;$1444ddff&<>uexxxxxxxxxxxxcccBBBNccxxxxxxxxxxxxxxxxxxxxxxxxccxX o##===+...",
"$$$$$$$$$$$$$$$$$4zzff&<ueuxxxxxxxxxxxxcccBBBNccxxxxxxxxxxxxxxxxxxxxxxxxccxX o##===+...",
"hhhhhhhhhhhhhhh1$4zzff&<euxxxxxxxxxxxxxcccBBBNccxxxxxxxxxxxxxxxxxxxxxxxxccxX o##===+...",
"OOOOOOOOOOOOOOO$$$ddf0&<uexxxxxxxxxxxxxcccBBBNccxxxxxxxxxxxxxxxxxxxxxxxxccxX o##===+...",
"               O4$ddf&&&euxxxxxxvxxxxxxcccBBBNccxxxxxxxxxxxxxxxxxxxxxxxxccxX o##===+...",
"               O$2llgg;$uexxxxxxxxxxxxxcccBBBNccxxxxxxxxxxxxxxxxxxxxxxxxccxX o##===+...",
"%%%%%%%%%%%%%  O$222;;$$exxxxxxxxxxxxxxcccBBBNccxxxxxxxxxxxxxxxxxxxxxxxxccxX o##===+...",
"tttttttttt6@%  Oh$$$$;$euxxxxxxxxxxxxxxcccBBBNccxxxxxxxxxxxxxxxxxxxxxxxxccxX o##===+...",
"ttttttttt6@5%  Oh$alg9$uexxxxxxxxxxxxxxcccBBBNccxxxxxxxxxxxxxxxxxxxxxxxxccxX o##===+...",
"tttttttt6@5r%  Oh$wjhq$euxxxxxxxxxxxxxxcccBBBNccxxxxxxxxxxxxxxxxxxxxxxxxccxX o##===+...",
"ryyrrrt6@5tr%  Oh$wjhq$uexxxxxxxxxxxxxxcccBBBNccxxxxxxxxxxxxxxxxxxxxxxxxccxX o##===+...",
"yyyrrr6@5rrr%  Oh$wjhq$exxxxxxxxxxxxxxxcccBBBNccxxxxxxxxxxxxxxxxxxxxxxxxccxX o##===+...",
"ttttt6@5rrrr%  Oh$wjhq$uxxxxxxxxxxxxxxxcccBBBNccxxxxxxxxxxxxxxxxxxxxxxxxccxX o##===+...",
"tttt6@5ttttt%  Oh$wjhq$exxxxxxxxxxxxxxxcccBBBNccxxxxxxxxxxxxxxxxxxxxxxxxccxX o##===+...",
"ttt6@5tttttt%  Oh$wjhq$uxxxxxxxxxxxxxxxcccBBBNccxxxxxxxxxxxxxxxxxxxxxxxxccxX o##===+...",
"tt6@5ttttttt%  Oh$wjhq$exxxxxxxxxxxxxxxcccBBBNccxxxxxxxxxxxxxxxxxxxxxxxxccxX o##===+...",
"66@5tttttttt%  Oh$wjhq$uxxxxxxxxxxxxxxxcccBBBNccxxxxxxxxxxxxxxxxxxxxxxxxccxX o##===+...",
"@@5yyyyytttt%  Oh$wjhq$xxxxxxxxxxxxxxxxcccBBBNccxxxxxxxxxxxxxxxxxxxxxxxxccxX o##===+...",
"6@5yyyyytttt%  Oh$pkg9$xxxxxxxxxxxxxxxxcccBBBNccxxxxxxxxxxxxxxxxxxxxxxxxccxX o##===+..."
};
