/* XPM */
static char *result[] = {
/* columns rows colors chars-per-pixel */
"87 87 57 1 ",
"  c #101818",
". c #131A1B",
"X c #101C18",
"o c #182020",
"O c #1B2A2E",
"+ c #292C29",
"@ c #213031",
"# c #293031",
"$ c #293431",
"% c #213439",
"& c #293439",
"* c #293839",
"= c #313031",
"- c #34403E",
"; c #34413E",
": c #2B3D42",
"> c #2D484F",
", c #314142",
"< c #344044",
"1 c #314547",
"2 c #364744",
"3 c #394444",
"4 c #394744",
"5 c #31474C",
"6 c #31484C",
"7 c #394A4A",
"8 c #3F4C4C",
"9 c #3F4F4C",
"0 c #3F4C4F",
"q c #3F4F52",
"w c #3F5757",
"e c #31525A",
"r c #39515A",
"t c #39535A",
"y c #39555A",
"u c #395B65",
"i c #415352",
"p c #445757",
"a c #445A57",
"s c #495857",
"d c #495A57",
"f c #4A595A",
"g c #4A5D5A",
"h c #4A5D63",
"j c #4A696B",
"k c #52696B",
"l c #526D6B",
"z c #5A6D6B",
"x c #416D7B",
"c c #426D7B",
"v c #456D79",
"b c #3E349A",
"n c #453B9D",
"m c #4A3C9C",
"M c #445C86",
"N c #445E86",
"B c #4A419C",
/* pixels */
"6@5yyyyytttt%  Oh$pkg9$xxxxxxxxxxxxxxxxcccBBBNccxxxxxxxxxxxxxxxxxxxxxxxxccxX o##===+...",
"@@5yyyyytttt%  Oh$wjhq$xxxxxxxxxxxxxxxxcccBBBNccxxxxxxxxxxxxxxxxxxxxxxxxccxX o##===+...",
"66@5tttttttt%  Oh$wjhq$uxxxxxxxxxxxxxxxcccBBBNccxxxxxxxxxxxxxxxxxxxxxxxxccxX o##===+...",
"tt6@5ttttttt%  Oh$wjhq$exxxxxxxxxxxxxxxcccBBBNccxxxxxxxxxxxxxxxxxxxxxxxxccxX o##===+...",
"ttt6@5tttttt%  Oh$wjhq$uxxxxxxxxxxxxxxxcccBBBNccxxxxxxxxxxxxxxxxxxxxxxxxccxX o##===+...",
"tttt6@5ttttt%  Oh$wjhq$exxxxxxxxxxxxxxxcccBBBNccxxxxxxxxxxxxxxxxxxxxxxxxccxX o##===+...",
"ttttt6@5rrrr%  Oh$wjhq$uxxxxxxxxxxxxxxxcccBBBNccxxxxxxxxxxxxxxxxxxxxxxxxccxX o##===+...",
"yyyrrr6@5rrr%  Oh$wjhq$exxxxxxxxxxxxxxxcccBBBNccxxxxxxxxxxxxxxxxxxxxxxxxccxX o##===+...",
"ryyrrrt6@5tr%  Oh$wjhq$uexxxxxxxxxxxxxxcccBBBNccxxxxxxxxxxxxxxxxxxxxxxxxccxX o##===+...",
"tttttttt6@5r%  Oh$wjhq$euxxxxxxxxxxxxxxcccBBBNccxxxxxxxxxxxxxxxxxxxxxxxxccxX o##===+...",
"ttttttttt6@5%  Oh$alg9$uexxxxxxxxxxxxxxcccBBBNccxxxxxxxxxxxxxxxxxxxxxxxxccxX o##===+...",
"tttttttttt6@%  Oh$$$$;$euxxxxxxxxxxxxxxcccBBBNccxxxxxxxxxxxxxxxxxxxxxxxxccxX o##===+...",
"%%%%%%%%%%%%%  O$222;;$$exxxxxxxxxxxxxxcccBBBNccxxxxxxxxxxxxxxxxxxxxxxxxccxX o##===+...",
"               O$2llgg;$uexxxxxxxxxxxxxcccBBBNccxxxxxxxxxxxxxxxxxxxxxxxxccxX o##===+...",
"               O4$ddf&&&euxxxxxxvxxxxxxcccBBBNccxxxxxxxxxxxxxxxxxxxxxxxxccxX o##===+...",
"OOOOOOOOOOOOOOO$$$ddf0&<uexxxxxxxxxxxxxcccBBBNccxxxxxxxxxxxxxxxxxxxxxxxxccxX o##===+...",
"hhhhhhhhhhhhhhh1$4zzff&<euxxxxxxxxxxxxxcccBBBNccxxxxxxxxxxxxxxxxxxxxxxxxccxX o##===+...",
"$$$$$$$$$$$$$$$$$4zzff&<ueuxxxxxxxxxxxxcccBBBNccxxxxxxxxxxxxxxxxxxxxxxxxccxX o##===+...",
"9qqqqqqqqqq9;$1444ddff&<>uexxxxxxxxxxxxcccBBBNccxxxxxxxxxxxxxxxxxxxxxxxxccxX o##===+...",
"ghhhhhhhhhhg$33z7,ggff$-ueuxxxxxxxxxxxxcccBBBNccxxxxxxxxxxxxxxxxxxxxxxxxccxX o##===+...",
"kjjjjjjjjjjl$33sggggff$-:uexxxxxxxxxxxxcccBBmMccxxxxxxxxxxxxxxxxxxxxxxxxccxX o##===+...",
"pwwwwwwwwwwa$33sggggff$-u>uexxxxxxxxxxxcccBBmMccxxxxxxxxxxxxxxxxxxxxxxxxccxX o##===+...",
"$$$$$$$$$$$$$#3si7778-$u:u>uxxxxxxxxxxxcccBBBNccxxxxxxxxxxxxxxxxxxxxxxxxccxX o##===+...",
"xxxxxxueueueu$$$$$$$**u:u:ueuxxxxxxxxxxcccBBBNccxxxxxxxxxxxxxxxxxxxxxxxxccxX o##===+...",
"xxxxxxxxxueueueueu>u:u:u:u>uexxxxxxxxxxcccBBBNccxxxxxxxxxxxxxxxxxxxxxxxxccxX o##===+...",
"xxxxxxxxxxxxxcxxueueu>u:u:u>uexxxxxxxxxcccBBBNccxxxxxxxxxxxxxxxxxxxxxxxxccxX o##===+...",
"xxxxxxxxxxxxxxxxcxxueu>u>u:ueuexccxxxxxcccBBBNccxxxxxxxxxxxxxxxxxxxxxxxxccxX o##===+...",
"xxxxxxxxxxxxxxcxxxxcxxueu>u:ueuxccxxxxxcccBBBNccxxxxxxxxxxxxxxxxxxxxxxxxccxX o##===+...",
"xxxxxxxxxxxxxxcxxxxxxcxxeueu:uexccxxxxxcccBBBNccxxxxxxxxxxxxxxxxxxxxxxxxccxX o##===+...",
"xxxxxxxxxxxxxxcxxxxxxxxcxxueu:uexcxxxxxcccBBBNccxxxxxxxxxxxxxxxxxxxxxxxxccxX o##===+...",
"xxxxxxxxxxxxxxcxxxxxxxxxxxxueu:uecxxxxxcccBBBNccxxxxxxxxxxxxxxxxxxxxxxxxccxX o##===+...",
"xxxxxxxxxxxxxxcxxxxxxxxxxxxxxeu:uexxxxxcccBBBNccxxxxxxxxxxxxxxxxxxxxxxxxccxX o##===+...",
"xxxxxxxxxxxxxxcxxxxxxxxxxxxxxxeu:ucxxxxcccBBBNccxxxxxxxxxxxxxxxxxxxxxxxxccxX o##===+...",
"xxxxxxxxxxxxxxcxxxxxxxxxxxxxxxxeu:uxxxxcccBBBNccxxxxxxxxxxxxxxxxxxxxxxxxccxX o##===+...",
"xxxxxxxxxxxxxxcxxxxxxxxxxxxxxxxxeu:uccxxccBBBNccxxxxxxxxxxxxxxxxxxxxxxxxccxX o##===+...",
"xxxxxxxxxxxxxxcxxxxxxxxxxxxxxxxxxxu:ucxxccBBBNccxxxxxxxxxxxxxxxxxxxxxxxxccxX o##===+...",
"xxxxxxxxxxxxxxcxxxxxxxxxxxxxxxxxxxxu:uxxccBBBNccxxxxxxxxxxxxxxxxxxxxxxxxccxX o##===+...",
"xxxxxxxxxxxxxxcxxxxxxxxxxxxxxxxxxxxxu:uxccBBBNccxxxxxxxxxxxxxxxxxxxxxxxxccxX o##===+...",
"xxxxxxxxxxxxxxcxxxxxxxxxxxxxxxxxxxxxxu:ucxBBBNccxxxxxxxxxxxxxxxxxxxxxxxxccxX o##===+...",
"xxxxxxxxxxxxxxcxxxxxxxxxxxxxxxxxxxxxxxu:uxBBBNccxxxxxxxxxxxxxxxxxxxxxxxxccxX o##===+...",
"xxxxxxxxxxxxxxcxxxxxxxxxxxxxxxxxxxxxxxxu:uBBBNccxxxxxxxxxxxxxxxxxxxxxxxxccxX o##===+...",
"xxxxxxxxxxxxxxcxxxxxxxxxxxxxxxxxxxxxxxxxu:BBBNccxxxxxxxxxxxxxxxxxxxxxxxxccxX o##===+...",
"BBBBBBBBBBBBBmmBBBBBBBBBBBBBBBBBBBBBBBBBBBbBBNxxxxxxxxxxxxxxxxxxxxxxxxxxccxX o##===+...",
"BBBBBBBBBBBBBBBBBBBBBBBBBBBBBBBBBBBBBBBBBBBbBNxxxxxxxxxxxxxxxxxxxxxxxxxxccxX o##===+...",
"BBBBBBBBBBBBBBBBBBBBBBBBBBBBBBBBBBBBBBBBBBBBbNxxxxxxxxxxxxxxxxxxxxxxxxxxccxX o##===+...",
"NNNNNNNNNNNNNNNMMNNNNNNNNNNNNNNNNNNNNNNNNNNNNnuxxxxxxxxxxxxxxxxxxxxxxxxxccxX o##===+...",
"xxxxxxxxxxxxxxcxxxxxxxxxxxxxxxxxxxxxxxxxxxxxxu:ucxxxccxxxxxxxxxxxxxxxxxxccxX o##===+...",
"xxxxxxxxxxxxxxcxxxxxxxxxxxxxxxxxxxxxxxxxxxxxxxu:uxxxccxxxxxxxxxxxxxxxxxxccxX o##===+...",
"xxxxxxxxxxxxxxcxxxxxxxxxxxxxxxxxxxxxxxxxxxxxxxxu:uxxccxxxxxxxxxxxxxxxxxxccxX o##===+...",
"xxxxxxxxxxxxxxcxxxxxxxxxxxxxxxxxxxxxxxxxxxxxxxxxu:ucxcxxxxxxxxxxxxxxxxxxccxX o##===+...",
"xxxxxxxxxxxxxxcxxxxxxxxxxxxxxxxxxxxxxxxxxxxxxxxxxu:uxcxxccxxxxxxxxxxxxxxccxX o##===+...",
"xxxxxxxxxxxxxxcxxxxxxxxxxxxxxxxxxxxxxxxxxxxxxxxxxxu:ucxxccxxxxxxxxxxxxxxccxX o##===+...",
"xxxxxxxxxxxxxxcxxxxxxxxxxxxxxxxxxxxxxxxxxxxxxxxxxxxu:ucxccxxxxxxxxxxxxxxccxX o##===+...",
"xxxxxxxxxxxxxxcxxxxxxxxxxxxxxxxxxxxxxxxxxxxxxxxxxxxxu:uxccxxxxxxxxxxxxxxccxX o##===+...",
"xxxxxxxxxxxxxxcxxxxxxxxxxxxxxxxxxxxxxxxxxxxxxxxxxxxxxu:uccxxxxxxxxxxxxxxccxX o##===+...",
"xxxxxxxxxxxxxxcxxxxxxxxxxxxxxxxxxxxxxxxxxxxxxxxxxxxxxxu:ucxxxxxxxxxxxxxxccxX o##===+...",
"xxxxxxxxxxxxxxcxxxxxxxxxxxxxxxxxxxxxxxxxxxxxxxxxxxxxxxxu:ucxxxccxxxxxxxxccxX o##===+...",
"xxxxxxxxxxxxxxcxxxxxxxxxxxxxxxxxxxxxxxxxxxxxxxxxxxxxxxxxu:uxxxccxxxxxxxxccxX o##===+...",
"xxxxxxxxxxxxxxcxxxxxxxxxxxxxxxxxxxxxxxxxxxxxxxxxxxxxxxxxxu:uxxccxxxxxxxxccxX o##===+...",
"xxxxxxxxxxxxxxcxxxxxxxxxxxxxxxxxxxxxxxxxxxxxxxxxxxxxxxxxxxu:ucxcxxxxxxxxccxX o##===+...",
"xxxxxxxxxxxxxxcxxxxxxxxxxxxxxxxxxxxxxxxxxxxxxxxxxxxxxxxxxxxu:uxcxxcxxxxxccxX o##===+...",
"xxxxxxxxxxxxxxcxxxxxxxxxxxxxxxxxxxxxxxxxxxxxxxxxxxxxxxxxxxxxu:ucxxxccxxxxcxX o##===+...",
"xxxxxxxxxxxxxxcxxxxxxxxxxxxxxxxxxxxxxxxxxxxxxxxxxxxxxxxxxxxxxu:uxxxccxxxxcxX o##===+...",
"xxxxxxxxxxxxxxcxxxxxxxxxxxxxxxxxxxxxxxxxxxxxxxxxxxxxxxxxxxxxxxu:uxxccxxxxxxX o##===+...",
"xxxxxxxxxxxxxxcxxxxxxxxxxxxxxxxxxxxxxxxxxxxxxxxxxxxxxxxxxxxxxxxu:ucxcxxxxxxX o##===+...",
"xxxxxxxxxxxxxxcxxxxxxxxxxxxxxxxxxxxxxxxxxxxxxxxxxxxxxxxxxxxxxxxxu:uxcxxcxxxX o##===+...",
"xxxxxxxxxxxxxxcxxxxxxxxxxxxxxxxxxxxxxxxxxxxxxxxxxxxxxxxxxxxxxxxxxu:ucxxcxxxX o##===+...",
"xxxxxxxxxxxxxxcxxxxxxxxxxxxxxxxxxxxxxxxxxxxxxxxxxxxxxxxxxxxxxxxxxxu:uxxxccxX o##===+...",
"xxxxxxxxxxxxxxcxxxxxxxxxxxxxxxxxxxxxxxxxxxxxxxxxxxxxxxxxxxxxxxxxxxxu:uxxccxX o##===+...",
"xxxxxxxxxxxxxxcxxxxxxxxxxxxxxxxxxxxxxxxxxxxxxxxxxxxxxxxxxxxxxxxxxxxxu:ucxcxX o##===+...",
"xxxxxxxxxxxxxxcxxxxxxxxxxxxxxxxxxxxxxxxxxxxxxxxxxxxxxxxxxxxxxxxxxxxxxu:uxcxX o##===+...",
"xxxxxxxxxxxxxxcxxxxxxxxxxxxxxxxxxxxxxxxxxxxxxxxxxxxxxxxxxxxxxxxxxxxxxxu:ucxX o##===+...",
"xxxxxxxxxxxxxxcxxxxxxxxxxxxxxxxxxxxxxxxxxxxxxxxxxxxxxxxxxxxxxxxxxxxxxxxu:ucX o##===+...",
"xxxxxxxxxxxxxxcxxxxxxxxxxxxxxxxxxxxxxxxxxxxxxxxxxxxxxxxxxxxxxxxxxxxxxxxxu:uX o##===+...",
"xxxxxxxxxxxxxxcxxxxxxxxxxxxxxxxxxxxxxxxxxxxxxxxxxxxxxxxxxxxxxxxxxxxxxxxxxu:X o##===+...",
"..............................................................................##===+...",
"..............................................................................##===+...",
"..............................................................................##===+...",
"++++++++++++++++++++++++++++++++++++++++++++++++++++++++++++++++++++++++++++++##===+...",
"===================================================================================+...",
"===================================================================================+...",
"===================================================================================+...",
"###################################################################################+...",
"###################################################################################+...",
"oooooooooooooooooooooooooooooooooooooooooooooooooooooooooooooooooooooooooooooooooooo...",
"                                                                                    ...",
"XXXXXXXXXXXXXXXXXXXXXXXXXXXXXXXXXXXXXXXXXXXXXXXXXXXXXXXXXXXXXXXXXXXXXXXXXXXXXXXXXXXXXXX"
};
