/* XPM */
static char *result[] = {
/* columns rows colors chars-per-pixel */
"87 87 57 1 ",
"  c #101818",
". c #131A1B",
"X c #101C18",
"o c #182020",
"O c #1B2A2E",
"+ c #292C29",
"@ c #213031",
"# c #293031",
"$ c #293431",
"% c #213439",
"& c #293439",
"* c #293839",
"= c #313031",
"- c #34403E",
"; c #34413E",
": c #2B3D42",
"> c #2D484F",
", c #314142",
"< c #344044",
"1 c #314547",
"2 c #364744",
"3 c #394444",
"4 c #394744",
"5 c #31474C",
"6 c #31484C",
"7 c #394A4A",
"8 c #3F4C4C",
"9 c #3F4F4C",
"0 c #3F4C4F",
"q c #3F4F52",
"w c #3F5757",
"e c #31525A",
"r c #39515A",
"t c #39535A",
"y c #39555A",
"u c #395B65",
"i c #415352",
"p c #445757",
"a c #445A57",
"s c #495857",
"d c #495A57",
"f c #4A595A",
"g c #4A5D5A",
"h c #4A5D63",
"j c #4A696B",
"k c #52696B",
"l c #526D6B",
"z c #5A6D6B",
"x c #416D7B",
"c c #426D7B",
"v c #456D79",
"b c #3E349A",
"n c #453B9D",
"m c #4A3C9C",
"M c #445C86",
"N c #445E86",
"B c #4A419C",
/* pixels */
"XXXXXXXXXXXXXXXXXXXXXXXXXXXXXXXXXXXXXXXXXXXXXXXXXXXXXXXXXXXXXXXXXXXXXXXXXXXXXXXXXXXXXXX",
"...                                                                                    ",
"...oooooooooooooooooooooooooooooooooooooooooooooooooooooooooooooooooooooooooooooooooooo",
"...+###################################################################################",
"...+###################################################################################",
"...+===================================================================================",
"...+===================================================================================",
"...+===================================================================================",
"...+===##++++++++++++++++++++++++++++++++++++++++++++++++++++++++++++++++++++++++++++++",
"...+===##..............................................................................",
"...+===##..............................................................................",
"...+===##..............................................................................",
"...+===##o X:uxxxxxxxxxxxxxxxxxxxxxxxxxxxxxxxxxxxxxxxxxxxxxxxxxxxxxxxxxxcxxxxxxxxxxxxxx",
"...+===##o Xu:uxxxxxxxxxxxxxxxxxxxxxxxxxxxxxxxxxxxxxxxxxxxxxxxxxxxxxxxxxcxxxxxxxxxxxxxx",
"...+===##o Xcu:uxxxxxxxxxxxxxxxxxxxxxxxxxxxxxxxxxxxxxxxxxxxxxxxxxxxxxxxxcxxxxxxxxxxxxxx",
"...+===##o Xxcu:uxxxxxxxxxxxxxxxxxxxxxxxxxxxxxxxxxxxxxxxxxxxxxxxxxxxxxxxcxxxxxxxxxxxxxx",
"...+===##o Xxcxu:uxxxxxxxxxxxxxxxxxxxxxxxxxxxxxxxxxxxxxxxxxxxxxxxxxxxxxxcxxxxxxxxxxxxxx",
"...+===##o Xxcxcu:uxxxxxxxxxxxxxxxxxxxxxxxxxxxxxxxxxxxxxxxxxxxxxxxxxxxxxcxxxxxxxxxxxxxx",
"...+===##o Xxccxxu:uxxxxxxxxxxxxxxxxxxxxxxxxxxxxxxxxxxxxxxxxxxxxxxxxxxxxcxxxxxxxxxxxxxx",
"...+===##o Xxccxxxu:uxxxxxxxxxxxxxxxxxxxxxxxxxxxxxxxxxxxxxxxxxxxxxxxxxxxcxxxxxxxxxxxxxx",
"...+===##o Xxxxcxxcu:uxxxxxxxxxxxxxxxxxxxxxxxxxxxxxxxxxxxxxxxxxxxxxxxxxxcxxxxxxxxxxxxxx",
"...+===##o Xxxxcxxcxu:uxxxxxxxxxxxxxxxxxxxxxxxxxxxxxxxxxxxxxxxxxxxxxxxxxcxxxxxxxxxxxxxx",
"...+===##o Xxxxxxxcxcu:uxxxxxxxxxxxxxxxxxxxxxxxxxxxxxxxxxxxxxxxxxxxxxxxxcxxxxxxxxxxxxxx",
"...+===##o Xxxxxxxccxxu:uxxxxxxxxxxxxxxxxxxxxxxxxxxxxxxxxxxxxxxxxxxxxxxxcxxxxxxxxxxxxxx",
"...+===##o Xxcxxxxccxxxu:uxxxxxxxxxxxxxxxxxxxxxxxxxxxxxxxxxxxxxxxxxxxxxxcxxxxxxxxxxxxxx",
"...+===##o Xxcxxxxccxxxcu:uxxxxxxxxxxxxxxxxxxxxxxxxxxxxxxxxxxxxxxxxxxxxxcxxxxxxxxxxxxxx",
"...+===##o Xxccxxxxxcxxcxu:uxxxxxxxxxxxxxxxxxxxxxxxxxxxxxxxxxxxxxxxxxxxxcxxxxxxxxxxxxxx",
"...+===##o Xxccxxxxxxxxcxcu:uxxxxxxxxxxxxxxxxxxxxxxxxxxxxxxxxxxxxxxxxxxxcxxxxxxxxxxxxxx",
"...+===##o Xxccxxxxxxxxccxxu:uxxxxxxxxxxxxxxxxxxxxxxxxxxxxxxxxxxxxxxxxxxcxxxxxxxxxxxxxx",
"...+===##o Xxccxxxxxxxxccxxxu:uxxxxxxxxxxxxxxxxxxxxxxxxxxxxxxxxxxxxxxxxxcxxxxxxxxxxxxxx",
"...+===##o Xxccxxxxxxxxccxxxcu:uxxxxxxxxxxxxxxxxxxxxxxxxxxxxxxxxxxxxxxxxcxxxxxxxxxxxxxx",
"...+===##o Xxccxxxxxxxxxxxxxxcu:uxxxxxxxxxxxxxxxxxxxxxxxxxxxxxxxxxxxxxxxcxxxxxxxxxxxxxx",
"...+===##o Xxccxxxxxxxxxxxxxxccu:uxxxxxxxxxxxxxxxxxxxxxxxxxxxxxxxxxxxxxxcxxxxxxxxxxxxxx",
"...+===##o Xxccxxxxxxxxxxxxxxccxu:uxxxxxxxxxxxxxxxxxxxxxxxxxxxxxxxxxxxxxcxxxxxxxxxxxxxx",
"...+===##o Xxccxxxxxxxxxxxxxxccxcu:uxxxxxxxxxxxxxxxxxxxxxxxxxxxxxxxxxxxxcxxxxxxxxxxxxxx",
"...+===##o Xxccxxxxxxxxxxxxxxccxxcu:uxxxxxxxxxxxxxxxxxxxxxxxxxxxxxxxxxxxcxxxxxxxxxxxxxx",
"...+===##o Xxccxxxxxxxxxxxxxxccxxcxu:uxxxxxxxxxxxxxxxxxxxxxxxxxxxxxxxxxxcxxxxxxxxxxxxxx",
"...+===##o Xxccxxxxxxxxxxxxxxxxxxcxcu:uxxxxxxxxxxxxxxxxxxxxxxxxxxxxxxxxxcxxxxxxxxxxxxxx",
"...+===##o Xxccxxxxxxxxxxxxxxxxxxccxxu:uxxxxxxxxxxxxxxxxxxxxxxxxxxxxxxxxcxxxxxxxxxxxxxx",
"...+===##o Xxccxxxxxxxxxxxxxxxxxxccxxxu:uxxxxxxxxxxxxxxxxxxxxxxxxxxxxxxxcxxxxxxxxxxxxxx",
"...+===##o Xxccxxxxxxxxxxxxxxxxxxccxxxcu:uxxxxxxxxxxxxxxxxxxxxxxxxxxxxxxcxxxxxxxxxxxxxx",
"...+===##o XxccxxxxxxxxxxxxxxxxxxxxxxxxxunNNNNNNNNNNNNNNNNNNNNNNNNNNNNMMNNNNNNNNNNNNNNN",
"...+===##o XxccxxxxxxxxxxxxxxxxxxxxxxxxxxNbBBBBBBBBBBBBBBBBBBBBBBBBBBBBBBBBBBBBBBBBBBBB",
"...+===##o XxccxxxxxxxxxxxxxxxxxxxxxxxxxxNBbBBBBBBBBBBBBBBBBBBBBBBBBBBBBBBBBBBBBBBBBBBB",
"...+===##o XxccxxxxxxxxxxxxxxxxxxxxxxxxxxNBBbBBBBBBBBBBBBBBBBBBBBBBBBBBBmmBBBBBBBBBBBBB",
"...+===##o XxccxxxxxxxxxxxxxxxxxxxxxxxxccNBBB:uxxxxxxxxxxxxxxxxxxxxxxxxxcxxxxxxxxxxxxxx",
"...+===##o XxccxxxxxxxxxxxxxxxxxxxxxxxxccNBBBu:uxxxxxxxxxxxxxxxxxxxxxxxxcxxxxxxxxxxxxxx",
"...+===##o XxccxxxxxxxxxxxxxxxxxxxxxxxxccNBBBxu:uxxxxxxxxxxxxxxxxxxxxxxxcxxxxxxxxxxxxxx",
"...+===##o XxccxxxxxxxxxxxxxxxxxxxxxxxxccNBBBxcu:uxxxxxxxxxxxxxxxxxxxxxxcxxxxxxxxxxxxxx",
"...+===##o XxccxxxxxxxxxxxxxxxxxxxxxxxxccNBBBccxu:uxxxxxxxxxxxxxxxxxxxxxcxxxxxxxxxxxxxx",
"...+===##o XxccxxxxxxxxxxxxxxxxxxxxxxxxccNBBBccxxu:uxxxxxxxxxxxxxxxxxxxxcxxxxxxxxxxxxxx",
"...+===##o XxccxxxxxxxxxxxxxxxxxxxxxxxxccNBBBccxxcu:uxxxxxxxxxxxxxxxxxxxcxxxxxxxxxxxxxx",
"...+===##o XxccxxxxxxxxxxxxxxxxxxxxxxxxccNBBBccxxccu:uexxxxxxxxxxxxxxxxxcxxxxxxxxxxxxxx",
"...+===##o XxccxxxxxxxxxxxxxxxxxxxxxxxxccNBBBcccxxxxu:uexxxxxxxxxxxxxxxxcxxxxxxxxxxxxxx",
"...+===##o XxccxxxxxxxxxxxxxxxxxxxxxxxxccNBBBcccxxxxcu:uexxxxxxxxxxxxxxxcxxxxxxxxxxxxxx",
"...+===##o XxccxxxxxxxxxxxxxxxxxxxxxxxxccNBBBcccxxxxxeu:uexxxxxxxxxxxxxxcxxxxxxxxxxxxxx",
"...+===##o XxccxxxxxxxxxxxxxxxxxxxxxxxxccNBBBcccxxxxxceu:ueuxxxxxxxxxxxxcxxxxxxxxxxxxxx",
"...+===##o XxccxxxxxxxxxxxxxxxxxxxxxxxxccNBBBcccxxxxxcxeu:ueuxxcxxxxxxxxcxxxxxxxxxxxxxx",
"...+===##o XxccxxxxxxxxxxxxxxxxxxxxxxxxccNBBBcccxxxxxccxeu:ueuexxcxxxxxxcxxxxxxxxxxxxxx",
"...+===##o XxccxxxxxxxxxxxxxxxxxxxxxxxxccNBBBcccxxxxxccxueu:u>ueuxxcxxxxcxxxxxxxxxxxxxx",
"...+===##o XxccxxxxxxxxxxxxxxxxxxxxxxxxccNBBBcccxxxxxccxeueu:u>u>ueuxxcxxxxxxxxxxxxxxxx",
"...+===##o XxccxxxxxxxxxxxxxxxxxxxxxxxxccNBBBcccxxxxxxxxxeu>u:u:u>ueueuxxcxxxxxxxxxxxxx",
"...+===##o XxccxxxxxxxxxxxxxxxxxxxxxxxxccNBBBcccxxxxxxxxxxeu>u:u:u:u>ueueueueuxxxxxxxxx",
"...+===##o XxccxxxxxxxxxxxxxxxxxxxxxxxxccNBBBcccxxxxxxxxxxueu:u:u**$$$$$$$ueueueuxxxxxx",
"...+===##o XxccxxxxxxxxxxxxxxxxxxxxxxxxccNBBBcccxxxxxxxxxxxu>u:u$-8777is3#$$$$$$$$$$$$$",
"...+===##o XxccxxxxxxxxxxxxxxxxxxxxxxxxccMmBBcccxxxxxxxxxxxxu>u-$ffggggs33$awwwwwwwwwwp",
"...+===##o XxccxxxxxxxxxxxxxxxxxxxxxxxxccMmBBcccxxxxxxxxxxxxeu:-$ffggggs33$ljjjjjjjjjjk",
"...+===##o XxccxxxxxxxxxxxxxxxxxxxxxxxxccNBBBcccxxxxxxxxxxxxueu-$ffgg,7z33$ghhhhhhhhhhg",
"...+===##o XxccxxxxxxxxxxxxxxxxxxxxxxxxccNBBBcccxxxxxxxxxxxxeu><&ffdd4441$;9qqqqqqqqqq9",
"...+===##o XxccxxxxxxxxxxxxxxxxxxxxxxxxccNBBBcccxxxxxxxxxxxxueu<&ffzz4$$$$$$$$$$$$$$$$$",
"...+===##o XxccxxxxxxxxxxxxxxxxxxxxxxxxccNBBBcccxxxxxxxxxxxxxue<&ffzz4$1hhhhhhhhhhhhhhh",
"...+===##o XxccxxxxxxxxxxxxxxxxxxxxxxxxccNBBBcccxxxxxxxxxxxxxeu<&0fdd$$$OOOOOOOOOOOOOOO",
"...+===##o XxccxxxxxxxxxxxxxxxxxxxxxxxxccNBBBcccxxxxxxvxxxxxxue&&&fdd$4O               ",
"...+===##o XxccxxxxxxxxxxxxxxxxxxxxxxxxccNBBBcccxxxxxxxxxxxxxeu$;ggll2$O               ",
"...+===##o XxccxxxxxxxxxxxxxxxxxxxxxxxxccNBBBcccxxxxxxxxxxxxxxe$$;;222$O  %%%%%%%%%%%%%",
"...+===##o XxccxxxxxxxxxxxxxxxxxxxxxxxxccNBBBcccxxxxxxxxxxxxxxue$;$$$$hO  %@6tttttttttt",
"...+===##o XxccxxxxxxxxxxxxxxxxxxxxxxxxccNBBBcccxxxxxxxxxxxxxxeu$9gla$hO  %5@6ttttttttt",
"...+===##o XxccxxxxxxxxxxxxxxxxxxxxxxxxccNBBBcccxxxxxxxxxxxxxxue$qhjw$hO  %r5@6tttttttt",
"...+===##o XxccxxxxxxxxxxxxxxxxxxxxxxxxccNBBBcccxxxxxxxxxxxxxxeu$qhjw$hO  %rt5@6trrryyr",
"...+===##o XxccxxxxxxxxxxxxxxxxxxxxxxxxccNBBBcccxxxxxxxxxxxxxxxe$qhjw$hO  %rrr5@6rrryyy",
"...+===##o XxccxxxxxxxxxxxxxxxxxxxxxxxxccNBBBcccxxxxxxxxxxxxxxxu$qhjw$hO  %rrrr5@6ttttt",
"...+===##o XxccxxxxxxxxxxxxxxxxxxxxxxxxccNBBBcccxxxxxxxxxxxxxxxe$qhjw$hO  %ttttt5@6tttt",
"...+===##o XxccxxxxxxxxxxxxxxxxxxxxxxxxccNBBBcccxxxxxxxxxxxxxxxu$qhjw$hO  %tttttt5@6ttt",
"...+===##o XxccxxxxxxxxxxxxxxxxxxxxxxxxccNBBBcccxxxxxxxxxxxxxxxe$qhjw$hO  %ttttttt5@6tt",
"...+===##o XxccxxxxxxxxxxxxxxxxxxxxxxxxccNBBBcccxxxxxxxxxxxxxxxu$qhjw$hO  %tttttttt5@66",
"...+===##o XxccxxxxxxxxxxxxxxxxxxxxxxxxccNBBBcccxxxxxxxxxxxxxxxx$qhjw$hO  %ttttyyyyy5@@",
"...+===##o XxccxxxxxxxxxxxxxxxxxxxxxxxxccNBBBcccxxxxxxxxxxxxxxxx$9gkp$hO  %ttttyyyyy5@6"
};
