/* XPM */
static char *_a271749c94e49decb3f941e63ed97aa9gpagmZKD6GHBQ98[] = {
/* columns rows colors chars-per-pixel */
"43 30 143 2 ",
"   c None",
".  c #0D0A09",
"X  c #120F0E",
"o  c #110E12",
"O  c #190E11",
"+  c #110A1D",
"@  c #141110",
"#  c #1B1816",
"$  c #2E0E10",
"%  c #2B0D18",
"&  c #370C1F",
"*  c #00002C",
"=  c #0A002C",
"-  c #160820",
";  c #14002D",
":  c #1B012C",
">  c #100D28",
",  c #1B1720",
"<  c #19162B",
"1  c #010033",
"2  c #02013C",
"3  c #23002D",
"4  c #2C012D",
"5  c #310627",
"6  c #3C0B23",
"7  c #32002E",
"8  c #3A022E",
"9  c #3C0A2E",
"0  c #221D2A",
"q  c #3F0130",
"w  c #2A2522",
"e  c #2E2828",
"r  c #312B27",
"t  c #312B28",
"y  c #36312D",
"u  c #38322F",
"i  c #3C3734",
"p  c #3D3C39",
"a  c #520E17",
"s  c #77081F",
"d  c #4F0627",
"f  c #4D0A25",
"g  c #45032A",
"h  c #4C062B",
"j  c #54032C",
"k  c #53092B",
"l  c #5E0A2A",
"z  c #410130",
"x  c #490131",
"c  c #560132",
"v  c #5C0133",
"b  c #5C0A32",
"n  c #690623",
"m  c #6F0A27",
"M  c #6B022F",
"N  c #610829",
"B  c #6B0928",
"V  c #720927",
"C  c #790A27",
"Z  c #74042C",
"A  c #700C2E",
"S  c #691522",
"D  c #640134",
"F  c #6B0135",
"G  c #740236",
"H  c #7A0235",
"J  c #7D0238",
"K  c #403B37",
"L  c #413D3A",
"P  c #47423D",
"I  c #010144",
"U  c #04024B",
"Y  c #050353",
"T  c #00035B",
"R  c #08045B",
"E  c #010462",
"W  c #0A0564",
"Q  c #03056D",
"!  c #0D066C",
"~  c #000777",
"^  c #0E0672",
"/  c #03077B",
"(  c #00087F",
")  c #11087C",
"_  c #4B4641",
"`  c #4D4A46",
"'  c #524D49",
"]  c #55504A",
"[  c #5E5953",
"{  c #605A55",
"}  c #6B6660",
"|  c #7C766F",
" . c #8A0722",
".. c #850924",
"X. c #8C0C22",
"o. c #82042E",
"O. c #8D052D",
"+. c #92052D",
"@. c #9F062D",
"#. c #810430",
"$. c #A4072D",
"%. c #A8072D",
"&. c #A30B2D",
"*. c #AA0A2A",
"=. c #B5092D",
"-. c #B9092D",
";. c #A30630",
":. c #827C75",
">. c #8A837C",
",. c #040985",
"<. c #0F0880",
"1. c #000A8B",
"2. c #0C0A8B",
"3. c #130984",
"4. c #140A88",
"5. c #010B94",
"6. c #0F0C97",
"7. c #0E0D9B",
"8. c #100C93",
"9. c #010EA4",
"0. c #0A0EA3",
"q. c #040FAB",
"w. c #0110AE",
"e. c #0011B5",
"r. c #8F8981",
"t. c #908D87",
"y. c #B2AAA0",
"u. c #B9B1A6",
"i. c #BCB2A9",
"p. c #B9B6B0",
"a. c #C1B7AD",
"s. c #C0B8AE",
"d. c #C0BCB4",
"f. c #C0BFB8",
"g. c #C8C1B7",
"h. c #CCCAC3",
"j. c #D2CDC4",
"k. c #D2D0C9",
"l. c #D9D7D0",
"z. c #DDDAD1",
"x. c #E0DED6",
"c. c #E5E2DA",
"v. c #E9E7DF",
/* pixels */
"                                                                                      ",
"                                  * * *                                               ",
"                          * * * * * * * * * *                                         ",
"                      * * * * * * 1 E Y * * * *                                       ",
"                    * * * 1 / 9.w.e.e.e.9.E * * * *                                   ",
"                  * * * * I 5.e.e.e.e.e.e.e.,.* * * *                                 ",
"                  * * ; * * * 2 Y ( e.e.e.e.e.9.2 * * * *                             ",
"                  * * F F D ; 1 * * Y ,.e.e.e.e.q.T * * * * *                         ",
"          -.      * * G J J H G v z * * Y q.e.e.e.w.~ * * * * *                       ",
"          -.      * = G J J J #.J J F 7 * ,.e.e.q.7.8.1 * E * *                       ",
"          -.-.  * * * 3 x D F H J J J G * Q 8.4.4.4.4.I * 9.~ * *                     ",
"    -.-.      * * * * * * * * : D J J J 3 Y 4.4.4.4.4.2 * 2.<.* * *                   ",
"          -.$.j * z g 3 4 3 = * * 7 G J : Y 4.4.4.4.3.* * U 1 * * * * * *             ",
"            %.=.#.H D j D F F x * * 4 G 7 Y 4.4.4.4.) * * * * * 2 1 * * * * *         ",
"            3 +.=.F * * 1 * ; G c * * 4 : Y 4.4.4.4.) * 1 1.5.9.e.w.9.9.W 1 * *       ",
"            * * H g = 4 ; = * ; D F 4 * * Y 4.4.4.! 2 * ~ e.e.e.e.e.e.0.4.^ * *       ",
"            * * D = : & & 6 3 * : c G = * 2 Y Y U * Q 5.e.e.e.e.e.e.e.8.4.4.U * *     ",
"  r r t t r 0 > k + X X @ O & 4 * * v c * 1 T Q 1.9.e.e.e.e.e.e.e.w.0.4.4.4.! * *     ",
"  t t i K r r w X . X p P X O & 5 = x v * Y w.e.e.e.e.e.e.e.e.0.8.4.4.4.4.4.! * *     ",
"t t ' k.z.k.p.g.f.h.z.c.l.` X % 6 1 z c * * / e.e.e.w.0.0.8.4.4.4.4.4.4.4.4.! * *     ",
"t r :.j.c.v.v.v.l.j.j.g.s.| X a f = 4 G = * I 8.4.4.4.4.4.4.4.4.4.4.4.4.4.4.R * *     ",
"r t _ y.r.:.x.x.p y [ } ` # X X.f * z J 7 * 2 4.4.4.4.4.4.4.4.4.4.4.4.4.3.R * *       ",
"  t t y t u l.v.g.t.t w o X $ *.6 * q H : * I 4.4.4.4.4.4.4.4.4.4.4.4.^ 1 * : l       ",
"    r t t y d.z.v.x.{ t , - ..=.g * x v * * R 4.4.4.4.4.4.4.4.4.4.3.Y * : l .. .      ",
"        t t >.i.s.u.] t < * $.-.g = F ; * * 2 3.4.4.4.4.4.4.4.^ R 1 4 N .. . . .      ",
"          t t L [ P t t b M -.-.o.F D * * * * R 4.4.4.4.) R 1 = 8 B .. . . .          ",
"            r t t t e < 8 ;.=.=.=.D 7 * * * * * Y ^ W 2 * : k C  . . . .              ",
"                  S d * * =.=.Z =.$.4 * * * * * * * 3 d V .. . . .                    ",
"                    s n g Z =.j j @.O.* * * * 9 N V .. . .                            ",
"                          &.-.=.9 A -.9 k V                                           "
};
