/* XPM */
static char *d02bd9aba3d64244c9451eb31fe2b549x5JxOzGTBj41Jjmq[] = {
/* columns rows colors chars-per-pixel */
"57 82 50 1 ",
"  c #52686A",
". c #526A70",
"X c #5A7173",
"o c #5A717B",
"O c #5A757B",
"+ c #63757B",
"@ c #63797B",
"# c #657D83",
"$ c #637D84",
"% c #628086",
"& c #658089",
"* c #688089",
"= c #68818B",
"- c #6E8289",
"; c #68848B",
": c #68858B",
"> c #6E8489",
", c #6E848B",
"< c #6B868C",
"1 c #70858B",
"2 c #6A8B91",
"3 c #6E8991",
"4 c #6B8E94",
"5 c #738A94",
"6 c #738E94",
"7 c #708F97",
"8 c #768F94",
"9 c #768F97",
"0 c #709097",
"q c #799097",
"w c #73929C",
"e c #76939C",
"r c #73969C",
"t c #79939C",
"y c #7B969C",
"u c #78969F",
"i c #7E989F",
"p c #7897A1",
"a c #7B98A2",
"s c #7E9AA1",
"d c #7B9AA5",
"f c #7E9AA4",
"g c #7E9BA4",
"h c #7B9EA5",
"j c #7E9CA7",
"k c #819BA2",
"l c #849EA5",
"z c #849FA7",
"x c #819FAA",
"c c #84A2AD",
/* pixels */
"6666777799888888888888888888888888888888q6888888q6e944444",
"66660&ooXXXXXXXXXXXXXXXXXXXXXXXXXXXXXXXXXXXXXXXXXoo#44449",
"66666o&099888888989q88888888889988888888q66q88889e#o44443",
"666<o&hhlllllllllllllllllllllckllllllllllllllllllll=+<446",
"qq-+<ccccclujccccsuccccciycccccpucccccujccccjpjccccl-+,t4",
"qq+-ccccccysucccluylcccxyyccccjpyccccuuyccccwjpcccccc,+,4",
"q+-lccccccyc0cccslsscccslslcccejylcccpcwccclpjpccccccc++4",
"++lla6accluceccculsscccyjsscccrjyjccjpcwccccpcwcccluect+$",
"$accyliccjycrcccylkkcccyjddcccrcyjccjpcwccccjcwcccpfpccso",
"3cceihycccycrcccylkkcccyjddcccrcycccjpcwcccljcwcccwcufcc&",
"3ccyicycclycrcccylkkcccycjdcccrcyjccjpcwcccljcwcccucylcc=",
"3ccykhyccjycrcccylkkcccyjhhcccrcylccjacwcccljcwccc6culcc=",
"6ccsicycccycrcccylkkcccujddcccrcycccgycwcccljcwcccrcylcc=",
"5ccfigyccjycrcccylkkcccacjdcccrcygccjpcwcccljcwcccrcyxcc=",
"5ccfgcyccgycrcccylkkcccpjddcccrcygccjpc0cccljcwcccrcylcc-",
"5ccfijycclycrcccylkkcccdjddcccrcycccjpcrccccjcwcccrcyccc=",
"5ccfslpccyycucccuckkcccyjjjcccrcujccjpcwccccjcwcccrcyjcc:",
"5ccfsjycccycrcccylkkcccyjjhjccrcylccjpcwcccljcwcccrcylcc&",
"5ccfjfyccsycrcccylkkcccyjjjcccpcylccjpcwcccljcwcccrcyjcc-",
"5ccfslycccycrcccylkkcccyjhjcccrcycccjpcwccccjcwcccrcyccc=",
"5ccjsjyccsucrcccylkkcccyjjjcccrcyfccjpcwcccljcwcccrculcc:",
"5ccsslycccycrcccylkkcccyjjjjccrcylccjpcwcccljcwcccrcyjcc-",
"5ccjijyccsycrcccylkkcccyjjdcccrcyjccjacwcccljcwcccrcyfcc=",
"5ccsicycccycrcccylkkcccyjddcccrcycccsecwccccjcwcccrcyccc=",
"5ccsacycccycrcccylkkcccycuhcccrcylccjpcrcccljcwcccrcyccc,",
"5ccsskyccjycrcccylkkcccycyhcccrcyjccjuc0cccljcwcccrcyjcc=",
"5ccfycycccycrcccylkkcccycpucccrcysccjpcecccljcecccrcyjcc=",
"5ccfalycckycrcccylkkcccyfhscccrcycccjpcwccccjcwcccucylcc,",
"5ccfsxyccsycrcccylkkcccycsdcccrcucccjpcwcccljcwcccrcylcc=",
"5ccfslycclycrcccylkkcccyjadcccrcyjccjpcwcccljcwcccrculcc=",
"5ccfscuccsycrcccylkkcccycjdcccrcylccjpcwccccjcrcccrcylcc,",
"5ccfsjycccycrcccylkkcccyjjdcccrcufccjpcwcccjjc0cccrcyxcc=",
"5ccsicyccfycrccculkkcccyjddcccrcylccjpcrcccljcwcccrcyccc&",
"5ccgihycclycrcccylkkcccyjddcccrculccjucwcccljcwcccrcyjcc&",
"5ccgicycclycrcccylskcccycjdcccrcyjccjpcwccccjcwcccrcylcc=",
"5ccgihyccjycrcccylllcccyjddcccrcylccjpcwcccljcwcccrcylcc,",
"5ccsicyccjycrcccylkkcccyjddcccrculccjpcwcccljcwcccrcylcc&",
"5ccsigycccycrcccylkkcccpcjdcccrcycccjpcwcccljcwcccrculcc=",
"5ccsicyccjycrcccylkkcccajddcccrcylccjpcwccccjcwcccrcyjcc,",
"5ccfycycclycrcccylkkcccdjddcccrcyfccjpcwcccljcwcccrcylcc=",
"5ccfslucccucrcccylkkcccyjjjcccrcyjccjpcwccccjcwcccrcyjcc=",
"5ccfscyccjycrcccylkkcccyjjhcccrcylccjpcwcccljcwcccrcylcc,",
"5ccfplyccfycrcccylkkcccyjjdcccrcyjccjpcwcccljcwcccrcyccc=",
"5ccfslycclycrcccylkkcccyjddcccrcycccjpcwcccjjcwcccrcyjcc=",
"5ccjsjucccycrcccylkkcccyjjjcccrcylccjucwcccljcwcccrcylcc,",
"5ccsslyccfycrcccylkkcccyjjhcccrcyjccjucecccljcwcccrcujcc=",
"5ccjijycclycrcccylkkcccyjjhcccrcygccjpc0ccccjcwcccrcylcc=",
"5ccsicycclycrcccylkkcccyjdhcccrcycccjpcrccccjcwcccrcyccc,",
"5ccsicyccjyc0cccylkkcccychpcccrculccjpcwcccljcwcccrcyccc#",
"5ccsifycccycrcccylkkcccyjsacccrcyxccjpcwcccljcwcccrcylcc:",
"5ccficycccycrcccylkkcccyjjjcccrcylccjpcwccccjcwcccrcygcc&",
"5ccfycycclycrcccylkkcccycaacccrcujccjpcwcccljcwcccrcyccc,",
"5ccfsxycciycrcccylkkcccyjjjjccrcylccjpcwcccljcwcccrcylcc=",
"5ccfslycccycrcccylkkcccyjdjcccrcylccjpcwccccjcwcccrcyjcc=",
"5ccfffycccycrcccylkkcccycjacccpcycccjpcwcccljcwcccrcyscc,",
"5ccfacycchycrcccylkkcccyjjjjccrcyjccjpcwcccljcwcccrcyccc=",
"qccgiiycccyc0cccylkkcccyjjacccrcyjccspc0cccljcwcccrcyccc=",
"3ccgicycciycrcccylkkcccyjajcccrcylccjpcrcccljcwcccrcyjcc>",
"5ccgicycccycrcccylkkcccycjacccrcycccjpcwccccjcwcccrcyscc=",
"5ccgihycclycrcccylkkcccyjjscccrcyjccjpcwcccljcwcccecylcc=",
"5cciicycchycrcccylkkcccyjjjjccrculccjpcwcccljcrcccrcylcc1",
"5ccgihycccycrcccylkkcccujjjcccrcyxccjpcwcccljcwcccrcyjcc1",
"5ccgicycccycrcccylkkcccajjjjccrcylccjpcwccccjcrcccrcylcc1",
"5ccsilycciycrcccyckjcccajjhcccrcujccjpcwcccljc0cccrcyccc1",
"5ccfslpccjucrcccylkkcccylsicccrcylccfpcwccccjcwcccrcpjcc1",
"5ccfssucclycrcccylkkcccylsfcccrcuxccjpcwcccljcwcccrcwjcc1",
"5ccfgiyccxycrcccylkkcccyjyscccrculccjpcecccljcwcccrcwjcc1",
"5ccsigicclycrcccylkkcccycyscccrcqxccjpc7ccczjjwcccrcwjcc,",
"5ccfsajccjucecccylkkcccycyicccrcylcclulpccczjjwcccrcrccc,",
"5ccfajhcclycwcccylkkcccyguicccrculcclplpccczjjwcccrcrccc=",
"5cchdddcclucucccylkkcccycyfcccrcyccclulpccczjjpcccrcrccc=",
"5ccadfdccxycpcccylkkcccylyccccrcyccclukpccczjjpcccrcrccc:",
"<ccugigccgucycccylkkcccycygccc0cpcccfpjpccccilycccpjeccc-",
"-pccigcccgucycccylkkcccycyccccrcpcccjpcwccclsxycccpjyccc+",
"@@ccyyccccrcycccykylcccpgyccccrjpcccjwcpcccxulycccjwucc,+",
",@,ccjcccc0juccckkylcccsiygcccyjeccccejpcccluluccccccc,+-",
"22Oeccccccuffcccsttccccfteccccssexcccussccccepscccccj0O%2",
"22%Oeccccccqcccccffcccccffcccccfkccccjqcccccftcccccc0O:04",
"222%Oeccccccccccccccccccccccccccccccccccccccccccccc-O&004",
"2222<O:e6555555555555555555555555555555555556666<u1@:0004",
"666666  ........................................   666666",
"66666666wwwwwwwwewwwwwwwwwwwwwwwwwwwwwwwwwwwwwww666666666"
};
