/* XPM */
static char *result[] = {
/* columns rows colors chars-per-pixel */
"57 82 175 2 ",
"   c black",
".  c #000100",
"X  c #010101",
"o  c #000201",
"O  c #010302",
"+  c #020202",
"@  c #020302",
"#  c gray1",
"$  c #000400",
"%  c #040305",
"&  c #020404",
"*  c #040404",
"=  c gray2",
"-  c #060606",
";  c #060707",
":  c #020903",
">  c #020E02",
",  c #030F03",
"<  c gray3",
"1  c #0B0B0B",
"2  c #0C0C0C",
"3  c #031103",
"4  c #04170A",
"5  c #031809",
"6  c #03180A",
"7  c #101010",
"8  c #111111",
"9  c gray7",
"0  c #131313",
"q  c gray8",
"w  c #151515",
"e  c #161616",
"r  c #101818",
"t  c #131A1B",
"y  c #101C18",
"u  c gray10",
"i  c gray11",
"p  c #1D1D1D",
"a  c #062506",
"s  c #0A2D0A",
"d  c #0E360E",
"f  c #0F380F",
"g  c #072A14",
"h  c #1B201F",
"j  c #093017",
"k  c #0A3A1D",
"l  c #103D10",
"z  c #182020",
"x  c #182021",
"c  c #1B2122",
"v  c #1D2020",
"b  c #202020",
"n  c #232323",
"m  c gray14",
"M  c #252525",
"N  c gray15",
"B  c #252929",
"V  c #262B2A",
"C  c gray16",
"Z  c #292C29",
"A  c #2C2C2C",
"S  c #2D2D2D",
"D  c gray18",
"F  c #2F2F2F",
"G  c #293031",
"H  c gray19",
"J  c #313031",
"K  c #313131",
"L  c #323232",
"P  c gray20",
"I  c #343434",
"U  c #353535",
"Y  c #373737",
"T  c #323937",
"R  c gray22",
"E  c #393939",
"W  c #3A3A3A",
"Q  c gray23",
"!  c #3C3C3C",
"~  c gray24",
"^  c #431D35",
"/  c #452138",
"(  c #134513",
")  c #144A15",
"_  c #174D17",
"`  c #164F16",
"'  c #1A571A",
"]  c #1E641E",
"[  c #104725",
"{  c #114C26",
"}  c #114F29",
"|  c #1B5F24",
" . c #13552D",
".. c #14582E",
"X. c #155C31",
"o. c #165F32",
"O. c #18612E",
"+. c #186636",
"@. c #1A6B37",
"#. c #186538",
"$. c #1A6B3A",
"%. c #1B723E",
"&. c #1C703D",
"*. c #1E763C",
"=. c #206420",
"-. c #287D28",
";. c #1F7D45",
":. c #217E43",
">. c #4E454C",
",. c #414B48",
"<. c #4E5756",
"1. c #535E5C",
"2. c #6B606B",
"3. c #6C626C",
"4. c #6A7674",
"5. c #747176",
"6. c #2B872B",
"7. c #2D892D",
"8. c #2E8E2E",
"9. c #2F902F",
"0. c #329832",
"q. c #35A135",
"w. c #36A336",
"e. c #3AAF3A",
"r. c #3BB03B",
"t. c #3BB23B",
"y. c #39B03D",
"u. c #3CB53C",
"i. c #3FBC3F",
"p. c #3FBE3F",
"a. c #3FBF3F",
"s. c #268C46",
"d. c #288E41",
"f. c #23874B",
"g. c #22884A",
"h. c #238A4C",
"j. c #248C4D",
"k. c #25904B",
"l. c #299348",
"z. c #2B994B",
"x. c #2FA149",
"c. c #30A044",
"v. c #35AA46",
"b. c #36AD45",
"n. c #37AD45",
"m. c #37AE45",
"M. c #37B044",
"N. c #38B045",
"B. c #39B244",
"V. c #3DBA41",
"C. c #3DBB41",
"Z. c #3EBB41",
"A. c #3CB942",
"S. c #3DBA42",
"D. c #3FBE40",
"F. c #40BF40",
"G. c #40C040",
"H. c #778583",
"J. c #788583",
"K. c #83928F",
"L. c #8B9999",
"P. c #929E9D",
"I. c #91A19E",
"U. c #9CABAB",
"Y. c #BACECB",
"T. c #BECFCE",
"R. c #CBDFDD",
"E. c #D0E7E3",
"W. c #D1E8E4",
"Q. c #D3EAE6",
"!. c #D4EBE8",
"~. c #D6EEEA",
"^. c #D7EFEB",
"/. c #D8F0EC",
"(. c #D9F1ED",
/* pixels */
"t t t t t t t t t t t t t t t t t t t t t t t t t t t t t t t t t t t t t t t t t t t t t t t t t t t t t t t t t ",
"t t t t t t t t t t t t t t t t t t t t t t t t t t t t t t t t t t t t t t t t t t t t t t t t t t t t t t t t t ",
"t t t c c h h h h h h h h h h h h h h h h h h h h h h h h h h h h h h h h h h h h h h h h h h h h h h h h h t t t ",
"t t t c c J J J J J J J J J J J J J J J J J J J J J J J J J J J J J J J J J J J J J J J J J J J J J J J c h t t t ",
"t t t c c c J J J J J J J J J J J J J J J J J J J J J J J J J J J J J J J J J J J J J J J J J J J J J c J h t t t ",
"t t t c c J c J J J J J J J J J J J J J J J J J J J J J J J J J J J J J J J J J J J J J J J J J J J c J J h t t t ",
"t t t c c J J c G G G G G G G G G G G G G G G G G G G G G G G G G G G G G G G G G G G G G G G G G c J J J h t t t ",
"t t t c c J J J c G G G G G G G G G G G G G G G G G G G G G G G G G G G G G G G G G G G G G G G c G J J J h t t t ",
"t t t c c J J J Z t t t z z z z z z z z z z z z z z z z z z z z z z z z z z z z z z z z z y r z G G J J J h t t t ",
"t t t c c J J J Z t t t r r r r r r r r r r r r r r r r r r r r r r r r r r r r r r r r r y r z G G J J J h t t t ",
"t t t c c J J J Z t t t y y y y y y y y r r r r r r r r x x x x y y y y y y y y y y y y y y r z G G J J J h t t t ",
"t t t c c J J J Z t t t ~ ~ ~ ~ ~ ~ ~ ~ ~ ~ ~ ~ ~ ~ ~ ~ ~ ~ ~ ~ ~ ~ ~ ~ ~ ~ ~ ~ ~ ~ ~ ~ ~ y r z G G J J J h t t t ",
"t t t c c J J J Z t t t ~ ~ ~ ~ ~ ~ ~ ~ ~ ~ ~ ~ ~ ~ ~ ~ ~ ~ ~ ~ ~ ~ ~ ~ ~ ~ ~ ~ ~ ~ ~ ~ ~ y r z G G J J J h t t t ",
"t t t c c J J J Z t t t ~ ~ ~ ~ ~ ~ ~ ~ ~ ~ ~ ~ ~ ~ ~ ~ ~ ~ ~ ~ ~ ~ ~ ~ ~ ~ ~ ~ ~ ~ ~ ~ ~ y r z G G J J J h t t t ",
"t t t c c J J J Z t t t ~ ~ ~ ~ ~ ~ ~ ~ ~ ~ ~ ~ ~ ~ ~ ~ ~ ~ ~ ~ ~ ~ ~ ~ ~ ~ ~ ~ ~ ~ ~ ~ ~ y r z G G J J J h t t t ",
"t t t c c J J J Z t t t ~ ~ ~ ~ ~ ~ ~ ~ ~ ~ ~ ~ ~ ~ ~ ~ ~ ~ ~ ~ ~ ~ ~ ~ ~ ~ ~ ~ ~ ~ ~ ~ ~ y r z G G J J J h t t t ",
"t t t c c J J J Z t t t ~ ~ ~ ~ ~ ~ ~ ~ ~ ~ ~ L ~ ~ ~ ~ ~ ~ ~ ~ ~ ~ ~ ~ ~ ~ ~ ~ ~ ~ ~ ~ ~ y r z G G J J J h t t t ",
"t t t c c J J J Z t t t ~ ~ ~ ~ ~ ~ ~ ~ ~ ~ ~ L ~ ~ ~ ~ U D A ! ~ ~ ~ ~ ~ ~ ~ ~ ~ ~ ~ ~ ~ y r z G G J J J h t t t ",
"t t t c c J J J Z t t t ~ ~ ~ ~ ~ ~ ~ ~ ~ ~ L L L ~ ~ M X X   R ~ ~ ~ ~ ~ ~ ~ ~ ~ ~ ~ ~ ~ y r z G G J J J h t t t ",
"t t t c c J J J Z t t t ~ ~ ~ ~ ~ ~ ~ ~ ~ ~ L i L L ! 0 8 b b Q ~ ~ ~ ~ ~ ~ ~ ~ ~ ~ ~ ~ ~ y r z G G J J J h t t t ",
"t t t c c J J J Z t t t ~ ~ ~ ~ ~ ~ ~ ~ ~ L L i L L ! 9 9 K R ~ ~ ~ ~ ~ ~ ~ ~ ~ ~ ~ ~ ~ ~ y r z G G J J J h t t t ",
"t t t c c J J J Z t t t ~ ~ ~ ~ ~ ~ ~ ~ ~ L i i i L w X X X * u Y ~ ~ ~ ~ ~ ~ ~ ~ ~ ~ ~ ~ y r z G G J J J h t t t ",
"t t t c c J J J Z t t t ~ ~ ~ ~ ~ ~ ~ ~ ~ L i i i # f 7.9.=.3   w ! ~ ~ ~ ~ ~ ~ ~ ~ ~ ~ ~ y r z G G J J J h t t t ",
"t t t c c J J J Z t t t ~ ~ ~ ~ ~ ~ ~ ~ L L i i = ( t.w.d $     = I ~ ~ ~ ~ ~ ~ ~ ~ ~ ~ ~ y r z G G J J J h t t t ",
"t t t c c J J J Z t t t ~ ~ ~ ~ ~ ~ ~ ~ L i i i > q.u.l & L.U.P.,.q Q ~ ~ ~ ~ ~ ~ ~ ~ ~ ~ y r z G G J J J h t t t ",
"t t t c c J J J Z t t t ~ ~ ~ ~ ~ ~ ~ ~ L i i e ) a.6.% I.W.3.^ >.; F ~ ~ ~ ~ ~ ~ ~ ~ ~ ~ y r z G G J J J h t t t ",
"t t t c c J J J Z t t t ~ ~ ~ ~ ~ ~ L L i i i - | G.' V E.!.2./ 5.B C ~ ~ ~ ~ ~ ~ ~ ~ ~ ~ y r z G G J J J h t t t ",
"t t t c c J J J Z t t t ~ ~ ~ ~ ~ ~ L i i i i   O.C._ <.^./.R.T.Y.v C ~ ~ ~ ~ ~ ~ ~ ~ ~ ~ y r z G G J J J h t t t ",
"t t t c c J J J Z t t t ~ ~ ~ ~ ~ L L i i i i   @.A.] T Q.(./.~.K.+ P ~ ~ ~ ~ ~ ~ ~ ~ ~ ~ y r z G G J J J h t t t ",
"t t t c c J J J Z t t t ~ ~ ~ ~ ~ L i i i i i   *.S.8.  1.H.J.4.  e ~ ~ ~ ~ ~ ~ ~ ~ ~ ~ ~ y r z G G J J J h t t t ",
"t t t c c J J J Z t t t ~ ~ ~ ~ ~ L i i i i w 6 l.D.p.0.` , @ s a 1 E ~ ~ ~ ~ ~ ~ ~ ~ ~ ~ y r z G G J J J h t t t ",
"t t t c c J J J Z t t t ~ ~ ~ ~ ~ ~ L i i i X  .m.F.F.F.i.r.e.u.-.  u ! ~ ~ ~ ~ ~ ~ ~ ~ ~ y r z G G J J J h t t t ",
"t t t c c J J J Z t t t ~ ~ ~ ~ ~ ~ ~ H # 4 } c.F.F.F.F.F.F.F.G.y.{   F ~ ~ ~ ~ ~ ~ ~ ~ ~ y r z G G J J J h t t t ",
"t t t c c J J J Z t t t ~ ~ ~ ~ ~ ~ ~ u : #.j.x.D.F.F.F.F.F.F.F.F.d.  A ~ ~ ~ ~ ~ ~ ~ ~ ~ y r z G G J J J h t t t ",
"t t t c c J J J Z t t t ~ ~ ~ ~ ~ ~ ~ m X   X.h.N.F.Z.M.b.b.n.B.V.:.X N ~ ~ ~ ~ ~ ~ ~ ~ ~ y r z G G J J J h t t t ",
"t t t c c J J J Z t t t ~ ~ ~ ~ ~ ~ ~ ! E p O $.z.v.s.o.[ &.;.g.k.f.j * U ~ ~ ~ ~ ~ ~ ~ ~ y r z G G J J J h t t t ",
"t t t c c J J J Z t t t ~ ~ ~ ~ ~ ~ ~ ~ ~ Y 2 g %.+.5 X X X   O k ..... K ~ ~ ~ ~ ~ ~ ~ ~ y r z G G J J J h t t t ",
"t t t c c J J J Z t t t ~ ~ ~ ~ ~ ~ ~ ~ ~ ~ L < o . 7 K Y P S n 9 +   9 W ~ ~ ~ ~ ~ ~ ~ ~ y r z G G J J J h t t t ",
"t t t c c J J J Z t t t ~ ~ ~ ~ ~ ~ ~ ~ ~ ~ ~ R H F W ~ ~ ~ ~ ~ ! I D R ~ ~ ~ ~ ~ ~ ~ ~ ~ y r z G G J J J h t t t ",
"t t t c c J J J Z t t t ~ ~ ~ ~ ~ ~ ~ ~ ~ ~ ~ ~ ~ ~ ~ ~ ~ ~ ~ ~ ~ ~ ~ ~ ~ ~ ~ ~ ~ ~ ~ ~ ~ y r z G G J J J h t t t ",
"t t t c c J J J Z t t t ~ ~ ~ ~ ~ ~ ~ ~ ~ ~ ~ ~ ~ ~ ~ ~ ~ ~ ~ ~ ~ ~ ~ ~ ~ ~ ~ ~ ~ ~ ~ ~ ~ r r z G G J J J h t t t ",
"t t t c c J J J Z t t t ~ ~ ~ ~ ~ ~ ~ ~ ~ ~ ~ ~ ~ ~ ~ ~ ~ ~ ~ ~ ~ ~ ~ ~ ~ ~ ~ ~ ~ ~ ~ ~ ~ r r z G G J J J h t t t ",
"t t t c c J J J Z t t t ~ ~ ~ ~ ~ ~ ~ ~ ~ ~ ~ ~ ~ ~ ~ ~ ~ ~ ~ ~ ~ ~ ~ ~ ~ ~ ~ ~ ~ ~ ~ ~ ~ r r z G G J J J h t t t ",
"t t t c c J J J Z t t t ~ ~ ~ ~ ~ ~ ~ ~ ~ ~ ~ ~ ~ ~ ~ ~ ~ ~ ~ ~ ~ ~ ~ ~ ~ ~ ~ ~ ~ ~ ~ ~ ~ r r z G G J J J h t t t ",
"t t t c c J J J Z t t t ~ ~ ~ ~ ~ ~ ~ ~ ~ ~ ~ ~ ~ ~ ~ ~ ~ ~ ~ ~ ~ ~ ~ ~ ~ ~ ~ ~ ~ ~ ~ ~ ~ r r z G G J J J h t t t ",
"t t t c c J J J Z t t t ~ ~ ~ ~ ~ ~ ~ ~ ~ ~ ~ ~ ~ ~ ~ ~ ~ ~ ~ ~ ~ ~ ~ ~ ~ ~ ~ ~ ~ ~ ~ ~ ~ r r z G G J J J h t t t ",
"t t t c c J J J Z t t t ~ ~ ~ ~ ~ ~ ~ ~ ~ ~ ~ ~ ~ ~ ~ ~ ~ ~ ~ ~ ~ ~ ~ ~ ~ ~ ~ ~ ~ ~ ~ ~ ~ r r z G G J J J h t t t ",
"t t t c c J J J Z t t t ~ ~ ~ ~ ~ ~ ~ ~ ~ ~ ~ ~ ~ ~ ~ ~ ~ ~ ~ ~ ~ ~ ~ ~ ~ ~ ~ ~ ~ ~ ~ ~ ~ r r z G G J J J h t t t ",
"t t t c c J J J Z t t t ~ ~ ~ ~ ~ ~ ~ ~ ~ ~ ~ ~ ~ ~ ~ ~ ~ ~ ~ ~ ~ ~ ~ ~ ~ ~ ~ ~ ~ ~ ~ ~ ~ x r z G G J J J h t t t ",
"t t t c c J J J Z t t t t t t t t t t t t t t t t t t t t t t t t t t t t t t t t t t t t y r z G G J J J h t t t ",
"t t t c c J J J Z t t t t t t t t t t t t t t t t t t t t t t t t t t t t t t t t t t t t y r z G G J J J h t t t ",
"t t t c c J J J Z t t t t t t t t t t t t t t t t t t t t t t t t t t t t t t t t t t t t y r z c G J J J h t t t ",
"t t t c c J J J c Z Z Z Z Z Z Z Z Z Z Z Z Z Z Z Z Z Z Z Z Z Z Z Z Z Z Z Z Z Z Z Z Z Z Z Z Z Z Z G c J J J h t t t ",
"t t t c c J J c J J J J J J J J J J J J J J J J J J J J J J J J J J J J J J J J J J J J J J J J J J c J J h t t t ",
"t t t c c J c J J J J J J J J J J J J J J J J J J J J J J J J J J J J J J J J J J J J J J J J J J J J c J h t t t ",
"t t t c c c J J J J J J J J J J J J J J J J J J J J J J J J J J J J J J J J J J J J J J J J J J J J J J c h t t t ",
"t t t c c c c c c c c c c c c c c c c c c c c c c c c c c c c c c c c c c c c c c c c c c c c c c c c c c h t t t ",
"t t t c c c c c c c c c c c c c c c c c c c c c c c c c c c c c c c c c c c c c c c c c c c c c c c c c c h t t t ",
"t t t t t t t t t t t t t t t t t t t t t t t t t t t t t t t t t t t t t t t t t t t t t t t t t t t t t t t t t ",
"t t t t t t t t t t t t t t t t t t t t t t t t t t t t t t t t t t t t t t t t t t t t t t t t t t t t t t t t t ",
"t t t t t t t t t t t t t t t t t t t t t t t t t t t t t t t t t t t t t t t t t t t t t t t t t t t t t t t t t ",
"t t t c c J J J h t t t t t t t t t t t t t t t t t t t t t t t t t t t t t t t t t t t t t t t c c J J J h t t t ",
"t t t c c J J J h t t t t t t t t t t t t t t t t t t t t t t t t t t t t t t t t t t t t t t t c c J J J h t t t ",
"t t t c c J J J h t t t t t t t t t t t t t t t t t t t t t t t t t t t t t t t t t t t t t t t c c J J J h t t t ",
"t t t c c J J J h t t t t t t t t t t t t t t t t t t t t t t t t t t t t t t t t t t t t t t t c c J J J h t t t ",
"t t t c c J J J h t t t t t t t t t t t t t t t t t t t t t t t t t t t t t t t t t t t t t t t c c J J J h t t t ",
"t t t c c J J J h t t t t t t t t t t t t t t t t t t t t t t t t t t t t t t t t t t t t t t t c c J J J h t t t ",
"t t t c c J J J h t t t t t t t t t t t t t t t t t t t t t t t t t t t t t t t t t t t t t t t c c J J J h t t t ",
"t t t c c J J J h t t t t t t t t t t t t t t t t t t t t t t t t t t t t t t t t t t t t t t t c c J J J h t t t ",
"t t t c c J J J h t t t t t t t t t t t t t t t t t t t t t t t t t t t t t t t t t t t t t t t c c J J J h t t t ",
"t t t c c J J J h t t t t t t t t t t t t t t t t t t t t t t t t t t t t t t t t t t t t t t t c c J J J h t t t ",
"t t t c c J J J h t t t t t t t t t t t t t t t t t t t t t t t t t t t t t t t t t t t t t t t c c J J J h t t t ",
"t t t c c J J J h t t t t t t t t t t t t t t t t t t t t t t t t t t t t t t t t t t t t t t t c c J J J h t t t ",
"t t t c c J J J h h h h h h h h h h h h h h h h h h h h h h h h h h h h h h h h h h h h h h h h c c J J J h t t t ",
"t t t c c J J J h J J J J J J J J J J J J J J J J J J J J J J J J J J J J J J J J J J J J J J J c c J J J h t t t ",
"t t t c c J J J h J J J J J J J J J J J J J J J J J J J J J J J J J J J J J J J J J J J J J J J c c J J J h t t t ",
"t t t c c J J J h J J J J J J J J J J J J J J J J J J J J J J J J J J J J J J J J J J J J J J J c c J J J h t t t ",
"t t t c c J J J h c c c c c c c c c c c c c c c c c c c c c c c c c c c c c c c c c c c c c c c c c J J J h t t t ",
"t t t c c J J J h c c c c c c c c c c c c c c c c c c c c c c c c c c c c c c c c c c c c c c c c c J J J h t t t ",
"t t t t t t t t t t t t t t t t t t t t t t t t t t t t t t t t t t t t t t t t t t t t t t t t t t t t t t t t t ",
"t t t t t t t t t t t t t t t t t t t t t t t t t t t t t t t t t t t t t t t t t t t t t t t t t t t t t t t t t ",
"t t t t t t t t t t t t t t t t t t t t t t t t t t t t t t t t t t t t t t t t t t t t t t t t t t t t t t t t t "
};
