/* XPM */
static char *_f4b4f5ec45848389320f973b7fe78a2tHX0v0ldiXrb0JRV[] = {
/* columns rows colors chars-per-pixel */
"41 53 119 2 ",
"   c None",
".  c #011B1C",
"X  c #013704",
"o  c #023A02",
"O  c #0A3A02",
"+  c #133902",
"@  c #193902",
"#  c #012815",
"$  c #01201A",
"%  c #273903",
"&  c #3B3803",
"*  c #010123",
"=  c #010921",
"-  c #0E0F27",
";  c #120123",
":  c #1B0122",
">  c #131528",
",  c #1C1E2D",
"<  c #220123",
"1  c #280123",
"2  c #330223",
"3  c #3E0222",
"4  c #21242F",
"5  c #232630",
"6  c #252831",
"7  c #2A2D34",
"8  c #2F3237",
"9  c #303437",
"0  c #323639",
"q  c #373B3C",
"w  c #433703",
"e  c #5D3604",
"r  c #4E2516",
"t  c #643504",
"y  c #6C3405",
"u  c #703305",
"i  c #410322",
"p  c #4A0222",
"a  c #560321",
"s  c #580321",
"d  c #630321",
"f  c #6A0321",
"g  c #750420",
"h  c #780420",
"j  c #024102",
"k  c #024A02",
"l  c #015401",
"z  c #015C01",
"x  c #016401",
"c  c #016A01",
"v  c #007500",
"b  c #007D00",
"n  c #86051F",
"m  c #8D051F",
"M  c #93061F",
"N  c #9A061E",
"B  c #950F1C",
"V  c #A5071D",
"C  c #AF081D",
"Z  c #B2081C",
"A  c #BA091B",
"S  c #9D2E07",
"D  c #9C2E08",
"F  c #8C3107",
"G  c #AB2C09",
"H  c #BF260A",
"J  c #BF290B",
"K  c #940522",
"L  c #A30720",
"P  c #B30827",
"I  c #DA1F0D",
"U  c #C1091B",
"Y  c #C90B1A",
"T  c #D30C17",
"R  c #DA0C17",
"E  c #D60C18",
"W  c #D90C19",
"Q  c #E21C0D",
"!  c #F4150F",
"~  c #E40D15",
"^  c #EA0E14",
"/  c #F40F12",
"(  c #F90F12",
")  c #FF1010",
"_  c #C4260B",
"`  c #CD250C",
"'  c #C3290A",
"]  c #D5210D",
"[  c #008500",
"{  c #008A00",
"}  c #009500",
"|  c #009D00",
" . c #00A100",
".. c #00CC00",
"X. c #00DD00",
"o. c #00E700",
"O. c #00ED00",
"+. c #00F400",
"@. c #00FF00",
"#. c #0BFE0B",
"$. c #13EC13",
"%. c #30FE30",
"&. c #3BFF3B",
"*. c #53BA53",
"=. c #6DB96D",
"-. c #5DFE5D",
";. c #60FE60",
":. c #7BFD7B",
">. c #9EED9E",
",. c #A2D1A2",
"<. c #B8DFB8",
"1. c #A5FDA5",
"2. c #ABF9AB",
"3. c #B8EBB8",
"4. c #CDFCCD",
"5. c #D2FCD2",
"6. c #DCFCDC",
"7. c #F5FDF5",
"8. c #FCFCFC",
/* pixels */
"                                                                                  ",
"                                                                                  ",
"                                    * * * * * *                                   ",
"                              * * * * * * * * * * * * *                           ",
"                            * * * * * * 2 3 3 ; * * * * * *                       ",
"                          * * * < N T / ) ) ) ( ~ Z s * * * *                     ",
"                        * * * M ^ ) ) ) ) ) ) ) ) ) ) A a * * * *                 ",
"                      * * 1 Y ) ) ) ) ) ) ) ) ) ) ) ) ) / n * * *                 ",
"                      * * N ) ) ) ) ) ) ( ( ! I _ ' ' ' ' J r $ . .               ",
"                      * < ~ ) ) ) ) ) ) Q F % o o o o o o o o o o o o o           ",
"                    * * h ) ) ) ) ) ) ' @ O o o o o o o X X o o o o o o o         ",
"                    * * E ) ) ) ) ) ] @ o o } ..X.o.O.O.$.>.3.<.,.=.b o o o       ",
"                    * 3 ( ) ) ) ) ) t o o v +.@.@.@.@.@.:.8.8.8.8.8.6.*.o o       ",
"                    * p ) ) ) ) ) Q o o x  .@.@.@.@.@.@.&.6.7.8.8.8.8.2.x o o     ",
"              * * * * p ) ) ) ) ) ` o o v | @.@.@.@.@.@.@.#.%.;.1.4.5.-.| o o     ",
"        * * * * * * * g ) ) ) ) ) H o o v b X.@.@.@.@.@.@.@.@.@.@.@.@.@. .o o     ",
"        * * : a g 2 * N ) ) ) ) ) _ o o v b [ ..@.@.@.@.@.@.@.@.@.@.@.+.v o o     ",
"      * * M / ) ) C * N ) ) ) ) ) ] o o v b b b } ..o.@.@.@.@.@.@.O.X. .c o o     ",
"      * : ^ ) ) ) Z * N ) ) ) ) ) Q o o x b b b b b b [ } | | | { [ b b l o o     ",
"      * p ) ) ) ) Z * N ) ) ) ) ) ! & o j v b [ b [ b b b b b b b b b c o o o     ",
"      * m ) ) ) ) Z * N ) ) ) ) ) ) D o o j c b b b [ v b b b b v c k o o o       ",
"      * Z ) ) ) ) Z * N ) ) ) ) ) ) ! e o o o j l z c c c x z j o o o o X         ",
"    * * U ) ) ) ) Z * N ) ) ) ) ) ) ) ! F O o o o o o o o o o o o o o # =         ",
"    * * A ) ) ) ) Z * N ) ) ) ) ) ) ) ) ) Q G y w + O o o + w y S ` B * *         ",
"    * * U ) ) ) ) Z * N ) ) ) ) ) ) ) ) ) ) ) ) ) ! ! ! ! ! ( ) ) ) M * *         ",
"    * * U ( ) ) ) Z * N ) ) ) ) ) ) ) ) ) ) ) ) ) ( ) ) ) ) ) ) ) ) M * *         ",
"    * * U ) ) ) ) Z * N ) ) ) ) ) ) ) ) ) ) ) ) ) ) ) ) ) ) ) ) ) ) M * *         ",
"    * * U ) ) ) ) Z * N ) ) ) ) ) ) ) ) ) ) ) ) ) ) ) ) ) ) ) ) ) ) M * *         ",
"    * * U ) ) ) ) Z * N ) ) ) ) ) ) ) ) ) ) ) ) ) ) ) ) ) ) ) ) ) ) K * *         ",
"    * * A ) ) ) ) Z * N ) ) ) ) ) ) ) ) ) ) ) ) ) ) ) ) ) ) ) ) ) ) M * *         ",
"    * * U ) ) ) ) Z * N ) ) ) ) ) ) ) ) ) ) ) ) ) ) ) ) ) ) ) ) ) ) M * *         ",
"    * * U ) ) ) ) Z * N ) ) ) ) ) ) ) ) ) ) ) ) ) ) ) ) ) ) ) ) ) ) M * *         ",
"    * * Z ) ) ) ) Z * N ) ) ) ) ) ) ) ) ) ) ) ) ) ) ) ) ) ) ) ) ) ) K * *         ",
"    * * m ) ) ) ) Z * N ) ) ) ) ) ) ) ) ) ) ) ) ) ) ) ) ) ) ) ) ) ) M * *         ",
"    * * f ) ) ) ) Z * N ) ) ) ) ) ) ) ) ) ) ) ) ) ) ) ) ) ) ) ) ) ) M * *         ",
"      * 2 ) ) ) ) Z * N ) ) ) ) ) ) ) ) ) ) ) ) ) ) ) ) ) ) ) ) ) ) M * *         ",
"      * ; ^ ) ) ( Z * N ) ) ) ) ) ) ) ) ) ) ) ) ) ) ) ) ) ) ) ) ) ) f * *         ",
"      * * K ) ) ) C * N ) ) ) ) ) ) ) ) ) ) ) ) ) ) ) ) ) ) ) ) ) ) 3 *           ",
"        * * a g h 2 * N ) ) ) ) ) ) ) ) ^ W W E E W E E W / ) ) ) ( 2 *           ",
"          * * * * * * N ) ) ) ) ) ) ) ) V * * * * * * m ~ ) ) ) ) ~ * *           ",
"              * * * * d ) ) ) ) ) ) ) ) V * * * * * A ) ) ) ) ( ) T * *           ",
"                    * p ) ) ) ) ) ) ) ) V * * * * * / ) ) ) ) ) ) K * *           ",
"                    * p ) ) ) ) ) ) ) ) V * *   * * / ) ) ) ) ) ) K * *           ",
"                    * * ^ ) ) ) ) ) ) ) V * *   * * / ) ) ) ) ) / 1 *             ",
"                    * * ^ ) ) ) ) ) ) ) N * 4 0 * * P ) ( ) ) ) T * *             ",
"                  q * * W ) ) ) ) ) ) ) d * 5 q - * 2 U R R R A p * > q           ",
"              q q q > * Y ) ) ) ) ) ( ( i * 7 q 6 * * * * * * * * * 8 q q q       ",
"            q q q q , * M ) ) ) ) ) ( L * * 9 q q 6 = * * * * * > 8 q q q q q     ",
"            q q q q 7 * * f n n n n f * * , q q q q q q 9 9 9 q q q q q q q q     ",
"              q q q q 7 - * * * * * * > 7 q q q q q q q q q q q q q q q q q       ",
"                    q q q 9 7 7 7 7 0 q q q q q q q q q q q q q q q q             ",
"                              q q q q q q q q q q q q q q q                       ",
"                                                                                  "
};
