/* XPM */
static char *_714e29bd812479392c39d4d736f5bb80WUu5OEsVQBdkv63[] = {
/* columns rows colors chars-per-pixel */
"57 82 60 1 ",
"  c None",
". c black",
"X c #000400",
"o c #000408",
"O c #080408",
"+ c #080C08",
"@ c #182021",
"# c #2C3334",
"$ c #2E3437",
"% c #2E383F",
"& c #313739",
"* c #313839",
"= c #313B39",
"- c #313B3F",
"; c #313C41",
": c #393C41",
"> c #364041",
", c #525D6B",
"< c #586668",
"1 c #5A696B",
"2 c #5D696E",
"3 c #526173",
"4 c #526573",
"5 c #5A6573",
"6 c #5D6D76",
"7 c #626E73",
"8 c #627173",
"9 c #627273",
"0 c #627276",
"q c #627278",
"w c #687581",
"e c #657886",
"r c #6B7984",
"t c #687886",
"y c #687986",
"u c #687C86",
"i c #6D7C86",
"p c #73848E",
"a c #73878E",
"s c #788794",
"d c #788991",
"f c #7E8D97",
"g c #788C99",
"h c #788F99",
"j c #7E8F99",
"k c #7E9199",
"l c #7E9399",
"z c #809399",
"x c #84969C",
"c c #849A9C",
"v c #86999F",
"b c #8C9AA5",
"n c #8C9EA5",
"m c #8CA2AD",
"M c #8CA6AD",
"N c #94A6AD",
"B c #94AAAD",
"V c #94AAB5",
"C c #94AEB5",
"Z c #9CAEB5",
/* pixels */
"                                                         ",
"                                                         ",
"                                                         ",
"                                                         ",
"                                                         ",
"                                                         ",
"                                                         ",
"                                                         ",
"                                                         ",
"                                                         ",
"                                                         ",
"                                                         ",
"                                                         ",
"                                                         ",
"                                                         ",
"                                                         ",
"                                                         ",
"                                                         ",
"                                                         ",
"                                                         ",
"                                                         ",
"                                                         ",
"                                                         ",
"                                                         ",
"            ...............................              ",
"          ...................................            ",
"        .....XXXXXXXXXXXXXXXXXXXXXXXXXXX.......          ",
"       .....&qqqqqqqqqqqqqqqqqqqqqqqqqqqq8=.....         ",
"       ...&NNVVVVVVVVVVVVVVVVVVVVVVVVVVVVBBB=...         ",
"      ...&7NNVVVVVVVVVVVVVVVVVVVVVVVVVVVVBBBB1...        ",
"      ..$55BBNNNNBBBBBBBBBBBBBBBBBBBBBBBBBBk38=XX.       ",
"     ...2BzBBNjjt33333333333333333333333tkBBt8BXX.       ",
"     ...nBBzu33333333333333333333333333333eBBBBXX.       ",
"     ..$nBi55334333333333333333333333333333tBBB=X.       ",
"     ..&NBBBBBBBBNNNNNNNNNNNNNNNNNNNBBBBkllBBVV>+.       ",
"     ..&NBBBBBNlktttttttttttttttttttttttlBBBBCV>+.       ",
"     ..&NBBBk44443333333333333333333333334kNBVV>+.       ",
"     ..=NBk34444433333333333333333333333344uBVV:+.       ",
"     oo;CBBllllllxxxxxxxxxxxxxxxxxxxxbsssjkkNBB-o.       ",
"     oo;CBBBBBBNBppppppppppppppppppppsssbNNNNBB0o.       ",
"     oo;CBBBBuu44333333333333333333333333tNNNBB0o.       ",
"     oo;CBlu4444433333333333333333333333333jNBB0o.       ",
"     OO:ZBdddkhhkggggggggggggggggggggktttwwwNVVqX.       ",
"     OO:ZBBBBMMMMmmmmmmmmmmmmmmmmmmmmNNNNNNNNVVqX.       ",
"     OO:ZBBBNMhhe33333333333333333333tttjNNNNVVqX.       ",
"     OO:ZBBcu3333333333333333333333333333,fNNVVqX.       ",
"     oo;CBe33444433333333333333333333333333tNBB0o.       ",
"     oo;CBBkklllkxxxxxxxxxxxxxxxxxxxxccccjjjNBB0o.       ",
"     oo;CBBBBBBBBppppppppppppppppppppaapcNNNNBB0o.       ",
"     oo;CBBBBuu44333333333333333333333333tNBNBB-o.       ",
"     ..#cNjt3333333333333333333333333333333kBm6%o.       ",
"     ..#cjjjjjjjjjjjjjjjjjjjjjjjjjjjjkttttttB66%o.       ",
"     ..#c3jNNNNNNNNNNNNNNNNNNNNNNNNNNNNNNBBBBmm%o.       ",
"     ...<tNNNNNNNNNNNNNNNNNNNNNNNNNNNNNNNBBBBm6oo.       ",
"      ....7NNNNNNNNNNNNNNNNNNNNNNNNNNNNNNBBB8@....       ",
"      .....&&&&&&&&&&&&&&&&&&&&&&&&&&&&&&&&=.....        ",
"       .........................................         ",
"         .....................................           ",
"                                                         ",
"                                                         ",
"                                                         ",
"                                                         ",
"                                                         ",
"                                                         ",
"                                                         ",
"                                                         ",
"                                                         ",
"                                                         ",
"                                                         ",
"                                                         ",
"                                                         ",
"                                                         ",
"                                                         ",
"                                                         ",
"                                                         ",
"                                                         ",
"                                                         ",
"                                                         ",
"                                                         ",
"                                                         ",
"                                                         ",
"                                                         "
};
