<?xml version="1.0" standalone="no"?>
<!DOCTYPE svg PUBLIC "-//W3C//DTD SVG 20010904//EN"
 "http://www.w3.org/TR/2001/REC-SVG-20010904/DTD/svg10.dtd">
<svg version="1.0" xmlns="http://www.w3.org/2000/svg"
 width="2560.000000pt" height="2560.000000pt" viewBox="0 0 2560.000000 2560.000000"
 preserveAspectRatio="xMidYMid meet">

<g transform="translate(0.000000,2560.000000) scale(0.100000,-0.100000)"
fill="#000000" stroke="none">
<path d="M10705 16935 c-60 -13 -123 -30 -140 -38 -16 -8 -48 -19 -70 -25 -70
-18 -175 -65 -175 -78 0 -7 -16 -16 -35 -20 -20 -3 -43 -16 -53 -28 -9 -12
-48 -44 -87 -70 -38 -26 -80 -61 -93 -77 -13 -16 -29 -29 -35 -29 -7 0 -22
-16 -35 -35 -12 -19 -30 -35 -40 -36 -9 0 -39 -29 -67 -64 -27 -35 -76 -92
-107 -127 -32 -35 -58 -71 -58 -81 0 -10 -8 -20 -17 -24 -21 -7 -93 -78 -93
-91 0 -16 -72 -101 -90 -107 -10 -3 -28 -20 -39 -38 -11 -18 -39 -57 -61 -87
-40 -54 -90 -128 -123 -182 -9 -15 -17 -36 -17 -46 0 -23 -23 -45 -35 -34 -5
4 -5 2 -1 -5 3 -6 2 -14 -4 -18 -5 -3 -10 -15 -10 -25 0 -10 -7 -25 -15 -34
-17 -17 -105 -202 -105 -222 0 -7 -6 -19 -12 -26 -25 -25 -70 -147 -99 -261
-5 -21 -13 -45 -18 -55 -37 -70 -95 -668 -81 -827 28 -299 57 -473 104 -635
56 -193 112 -348 171 -475 171 -365 214 -440 331 -573 26 -29 71 -92 101 -140
30 -48 63 -95 74 -104 11 -9 20 -20 19 -23 0 -3 32 -42 72 -86 85 -93 204
-196 280 -242 94 -57 109 -69 257 -218 80 -81 157 -155 171 -165 14 -11 44
-44 68 -75 41 -54 196 -195 256 -233 15 -10 88 -76 160 -147 73 -70 150 -141
172 -157 21 -16 70 -64 108 -106 66 -74 164 -164 311 -286 79 -65 83 -71 91
-146 4 -33 12 -72 19 -89 7 -16 27 -86 44 -155 l31 -125 4 -455 c4 -431 5
-459 26 -525 11 -38 25 -83 30 -100 5 -16 17 -70 26 -120 9 -49 25 -126 36
-170 11 -44 29 -120 39 -170 11 -49 27 -102 35 -118 19 -33 13 -43 -29 -52
-22 -5 -56 -32 -105 -82 -70 -71 -73 -76 -70 -116 3 -38 8 -45 53 -74 38 -25
54 -43 65 -75 25 -69 64 -79 248 -68 24 2 48 -2 54 -8 6 -6 11 -35 12 -64 1
-80 -34 -143 -106 -191 -55 -36 -85 -74 -82 -107 4 -71 45 -130 112 -164 23
-12 32 -23 32 -40 0 -15 12 -35 32 -51 27 -23 37 -25 72 -19 23 3 58 15 78 25
21 11 45 19 56 19 10 0 22 4 27 9 6 5 28 14 50 21 22 7 51 20 65 29 14 10 48
28 75 42 84 41 186 142 222 219 17 37 43 159 43 201 0 48 -18 146 -35 191 -8
20 -33 67 -56 105 -53 87 -94 162 -103 189 -5 18 1 26 37 47 40 24 51 40 71
100 3 9 14 20 23 23 70 22 108 50 217 157 67 65 153 141 191 167 39 27 105 74
147 105 42 30 83 55 90 55 8 0 25 14 40 30 14 17 35 30 47 30 11 0 23 5 27 12
5 8 2 9 -10 5 -10 -4 -15 -3 -11 4 4 5 16 7 27 3 16 -5 20 -3 15 8 -5 16 49
48 238 140 329 162 306 145 501 354 54 57 214 281 214 299 0 3 8 13 18 23 9
11 26 32 37 48 11 16 29 38 40 49 29 30 71 96 80 125 4 14 13 32 21 40 7 9 20
35 28 58 8 23 33 76 55 118 23 43 41 82 41 87 0 6 16 34 36 64 19 29 46 77 60
106 23 49 65 121 105 178 10 15 39 69 66 120 92 181 362 558 501 700 46 48 91
98 100 111 25 37 140 163 197 216 88 82 186 185 235 247 27 33 61 72 76 87 54
50 82 87 134 175 29 48 66 106 84 128 40 51 73 104 115 185 19 36 51 90 70
120 38 57 53 87 92 180 12 30 29 65 38 78 16 26 33 55 74 132 43 80 128 316
157 441 7 30 32 98 57 152 40 89 46 114 68 280 14 100 29 207 35 237 30 182
45 433 42 735 -4 435 -10 494 -55 589 -24 50 -53 92 -82 119 -25 23 -45 47
-45 53 0 5 -68 77 -152 159 -83 83 -159 162 -168 178 -9 15 -53 58 -96 95 -43
36 -129 116 -191 177 -127 125 -203 193 -277 248 -28 20 -68 51 -89 68 -59 48
-307 156 -379 165 -21 3 -70 14 -110 25 -122 33 -171 37 -485 43 -256 5 -313
4 -373 -10 -39 -8 -68 -19 -65 -23 7 -12 -106 -59 -187 -77 -40 -9 -77 -20
-83 -24 -5 -5 -26 -11 -45 -14 -19 -3 -64 -14 -99 -26 -35 -11 -68 -20 -73
-20 -6 0 -68 -32 -138 -70 -71 -39 -145 -76 -167 -84 -21 -7 -60 -27 -88 -45
-27 -17 -74 -45 -103 -62 -56 -33 -182 -153 -182 -173 0 -6 -12 -23 -27 -36
-27 -24 -49 -50 -118 -135 -16 -20 -61 -74 -100 -120 -38 -45 -79 -100 -90
-121 -33 -66 -57 -96 -89 -111 -17 -7 -44 -22 -61 -33 -56 -35 -76 -31 -112
25 -53 82 -84 123 -168 229 -86 108 -189 255 -217 311 -16 30 -66 78 -277 258
-35 30 -89 68 -120 83 -31 16 -59 32 -62 36 -10 15 -130 68 -259 115 -254 92
-248 91 -460 134 -30 6 -63 13 -74 16 -11 3 -16 1 -12 -5 4 -6 -17 -12 -56
-14 -69 -4 -96 6 -57 21 17 7 -16 10 -116 10 -109 -1 -165 -6 -250 -24z m-820
-601 c-7 -14 -23 -33 -36 -42 -24 -17 -23 -11 13 41 24 34 41 35 23 1z m6555
-1324 c0 -5 -9 -10 -20 -10 -11 0 -20 5 -20 10 0 6 9 10 20 10 11 0 20 -4 20
-10z m-6046 -2837 c-10 -7 -21 -13 -25 -13 -14 0 -17 -41 -4 -54 8 -7 17 -30
21 -50 3 -21 17 -49 29 -64 28 -34 55 -86 55 -107 0 -9 -9 -15 -23 -15 -13 0
-28 -5 -35 -12 -9 -9 -12 -9 -12 0 0 17 -40 15 -46 -3 -4 -8 -12 -15 -20 -15
-11 0 -14 17 -14 71 l0 71 -40 -7 c-32 -5 -40 -4 -40 8 0 9 6 18 13 21 6 3 2
3 -10 1 -12 -3 -24 -1 -27 4 -7 10 20 41 35 41 16 0 10 20 -8 27 -10 4 -21 11
-25 17 -9 13 10 36 28 36 8 0 14 5 14 10 0 6 6 10 13 10 8 0 24 11 36 24 25
27 68 37 89 22 11 -8 10 -12 -4 -23z m4836 -437 c0 -29 -29 -56 -60 -56 -24 0
-29 5 -35 36 -8 44 -1 52 45 56 37 3 50 -6 50 -36z m-186 -51 c4 -10 -1 -15
-17 -16 -22 -2 -22 -2 1 -6 24 -5 25 -26 1 -30 -25 -4 -51 24 -44 46 8 25 50
29 59 6z"/>
<path d="M14278 16793 c7 -3 16 -2 19 1 4 3 -2 6 -13 5 -11 0 -14 -3 -6 -6z"/>
</g>
</svg>
