<?xml version="1.0" standalone="no"?>
<!DOCTYPE svg PUBLIC "-//W3C//DTD SVG 20010904//EN"
 "http://www.w3.org/TR/2001/REC-SVG-20010904/DTD/svg10.dtd">
<svg version="1.0" xmlns="http://www.w3.org/2000/svg"
 width="66.000000pt" height="67.000000pt" viewBox="0 0 66.000000 67.000000"
 preserveAspectRatio="xMidYMid meet">

<g transform="translate(0.000000,67.000000) scale(0.100000,-0.100000)"
fill="#000000" stroke="none">
<path d="M153 586 c-60 -50 -80 -137 -48 -212 8 -20 44 -64 81 -97 l66 -62 5
-78 c3 -42 10 -77 14 -77 5 0 6 -7 2 -16 -4 -12 0 -15 18 -12 18 2 24 9 25 28
0 34 9 47 54 75 22 14 51 46 66 72 15 27 42 65 60 85 48 54 76 114 81 177 5
56 5 56 -41 99 -33 30 -54 42 -76 42 -42 0 -94 -23 -114 -51 l-16 -23 -34 33
c-47 46 -101 52 -143 17z"/>
</g>
</svg>
