/* XPM */
static char *_76de0cc65364bf2a237828569c1b4d0nSU3urinHWas4Xvn[] = {
/* columns rows colors chars-per-pixel */
"15 15 3 1 ",
"  c #E17CB7",
". c #BF53C9",
"X c #EFAAA5",
/* pixels */
"...............",
".X.         X.X",
"...         ..X",
".             X",
".             X",
".             X",
".             X",
".             X",
".             X",
".             X",
".             X",
".             X",
".X.         X.X",
"...         ..X",
"XXXXXXXXXXXXXXX"
};
